<?xml version="1.0" encoding="utf-8"?>
<!-- Generator: Adobe Illustrator 26.1.0, SVG Export Plug-In . SVG Version: 6.00 Build 0)  -->
<svg version="1.1" id="Layer_1" xmlns="http://www.w3.org/2000/svg" xmlns:xlink="http://www.w3.org/1999/xlink" x="0px" y="0px"
	 viewBox="0 0 1012.4 569.2" style="enable-background:new 0 0 1012.4 569.2;" xml:space="preserve">
<style type="text/css">
	.st0{fill:#3498DB;}
	.st1{fill:#ED925E;}
	.st2{fill:#ED9F6F;}
	.st3{fill:#E8463F;}
	.st4{fill:#AF5B1A;}
	.st5{fill:#B1B4C5;}
	.st6{fill:#ED9F6E;}
	.st7{fill:#A05012;}
	.st8{fill:#BD661F;}
	.st9{fill:#EE554F;}
	.st10{fill:#CB3A35;}
	.st11{fill:#888DA3;}
	.st12{fill:#ED935E;}
	.st13{fill:#888EA6;}
	.st14{fill:#EECE5F;}
	.st15{fill:#B2B5C5;}
	.st16{fill:#B2B6C4;}
	.st17{fill:#878DA4;}
	.st18{fill:#B1B3C4;}
	.st19{fill:#ADAFBF;}
	.st20{fill:#CA3A35;}
	.st21{fill:#BF3635;}
	.st22{fill:#888DA5;}
	.st23{fill:#ECCB5F;}
	.st24{fill:#B0B3C3;}
	.st25{fill:#EDCD5F;}
	.st26{fill:#EDF1EF;}
	.st27{fill:#E18353;}
	.st28{fill:#1F2937;}
	.st29{fill:#EECE60;}
	.st30{fill:#878DA5;}
	.st31{fill:#B74613;}
	.st32{fill:#AB451E;}
	.st33{fill:#A9441D;}
	.st34{fill:#AB441E;}
	.st35{fill:#EE5B4C;}
	.st36{fill:#EEF3F2;}
	.st37{fill:#E1C9B6;}
	.st38{fill:#EFDBC8;}
</style>
<g>
	<path class="st0" d="M623,431.4c-21.7,14.4-45.2,24.4-70.9,29c-42.3,7.6-82.7,1.9-121-17.6c-21.8-11.2-40.7-26.1-56.8-44.7
		c-0.7-1.1-0.4-2.2,0.3-3.1c6-8,11.7-16.3,18.1-23.9c6.7-2.3,13.3-4.8,18.8-9.6c0.5-0.4,1.2-0.5,1.9-0.5c1.5,0.2,2.3,1.3,3.3,2.3
		c7,7.6,14.2,14.9,22.9,20.6c19.1,14.9,40.7,23.3,64.8,25.9c26.8,2.8,51.9-2.6,75.4-15.5c8.6-4.7,16.2-10.7,23.6-17
		c4.5-4.1,8.7-8.5,13-12.8c1-1,1.7-2.3,3.3-2.4c2.3,0.4,3.9,2.1,5.4,3.5c6.8,6,14.6,9.6,23.5,11.1c6.1,4.5,10.3,10.6,14.5,16.7
		c0.3,0.5,0.1,1.1-0.2,1.6c-7.8,9.5-16.5,18-25.9,25.9c-2,0.6-2.9-1.1-4.2-1.9c-3.3-2.2-7.8-2.4-10-0.4c-2.4,2.1-2.6,5.5-0.7,9.5
		C622.7,429.1,623.7,430.1,623,431.4z"/>
	<path class="st0" d="M690.3,196.1c7.1,16.7,12.4,34,14.6,52.1c2.8,22.5,2.2,44.8-2.9,66.9c-5-0.9-8.5-3.2-11.1-7.9
		c-15.4-28.3-31.9-55.9-47.5-84c-1.8-3.3-3-6,1.1-8.4c1.3-0.8,1.3-2,0.6-3.3c-1.5-2.6-3.1-5.3-4.7-7.8c-0.9-1.4-2.1-1.8-3.6-1
		c-3.1,1.6-4.9,0.1-6.4-2.5c-11.1-19.2-22-38.6-33-57.8c-3.9-6.9-7.9-13.7-11.8-20.6c-1.2-2.1-2.2-4-1.1-6.6
		c1.1-2.4-0.6-4.3-2.4-5.7c-1.5-1.2-2.9,0.2-4.1,1c-1,0.6-1.8,1.4-1.4,2.7c0.6,1.9,1.3,4,3.5,4.3c3,0.3,4.3,2.3,5.5,4.5
		c9.6,17.2,19.6,34.2,29.1,51.4c1.9,3.4,3.8,6.8,5.8,10.1c0.8,1.3,1.7,2.6,0.8,4.2c-2,0.7-2.7-1-3.6-2.1
		c-13.7-15.2-29.7-27.3-48.5-35.3c-1.5-0.6-3.1-1.2-3.5-3.2c0-1.7,0.6-3.3,0.8-4.9c0.3-5-1.3-9.2-5.9-11.5c-3.5-1.8-4-4.2-3.7-7.8
		c0.7-7.3,2.2-14.5,1.4-21.9c-0.3-3.2-1.1-6.3-2.5-9.2c-0.6-1.2-1.3-2.5-0.6-4c12.4,1.9,24.1,5.9,35.6,10.8
		c37.8,16.3,67.4,42.1,88.6,77.4c0.1,1.8-1.4,1.7-2.4,2.3c-3.6,2.1-4.8,6.4-2.6,9.9c2.4,3.8,5.6,6.4,10.4,6.5
		C686.7,194.9,688.8,194.4,690.3,196.1z"/>
	<path class="st1" d="M393.1,371.8c-5.4,7.4-10.9,14.7-16.3,22.1c-1,1.3-2.3,2.5-2.4,4.3c-5.5,5.3-9.5,11.8-14,17.9
		c-4.9,6.4-9.7,12.7-16.1,17.8c-3.8,3.1-4.6,8.7-6.5,13.2c-6.9,16.6-13.4,33.4-20.1,50.1c-3,7.5-7.3,10.7-13,9.9
		c-6.7-0.9-10-4.8-11.2-14c-3,7.3-5.7,13.7-8.3,20.2c-1.9,4.6-5,7.5-10,8.4c-6.1,1-13.9-4.6-12.2-13.3c-0.4-2.9,0.4-5.6,1.7-8.3
		c5.2-10.3,8.4-21.4,13.4-31.7c0.7-1.5,0.3-2.3-1-3c-1.2-0.6-2.4-1.3-3.7-2c-17-8.8-24.1-23.6-25.3-41.9c-0.1-1.1,0.2-2.2,0.6-3.2
		c1.5-4.5,2.6-9.1,4.9-13.3c2.4-1.1,3.2,1,4.2,2.3c9.2,12.5,25.3,14.8,38,8.1c17.6-9.4,18.5-34,6.5-45.7c-1.4-1.4-3-2.5-4-4.2
		c-0.5-0.8-1-1.8-0.4-2.7c0.6-0.9,1.6-0.9,2.6-0.8c1.4,0.2,2.7,0.8,3.9,1.3c9.2,3.9,18.5,7.5,27.7,11.2c2.7,1.1,5.2,2.7,7.6,4.3
		c3,2,5.5,1.8,8.1-0.7c10.9-10.7,21.6-21.5,32.4-32.3c3.1-3.1,6.2-6.3,9.6-9.2c6.9-5.9,12.4-13,18.1-20c5.3,2.7,6,8.1,6.7,13
		c1.2,8.4-0.4,16.2-5.8,23.1c-3,3.8-5.8,7.8-8.6,11.8C398.3,367.3,396.1,369.9,393.1,371.8z"/>
	<path class="st0" d="M389.1,133.7c16.6-14.9,35-27.1,55.8-35.6c0.5-0.2,1-0.3,1.6-0.5c1.7,0.8,0.7,1.9,0.2,2.6
		c-3.8,5.1-4.3,11-4.8,17c-0.2,2.9-1.2,4.4-4.2,5.2c-7.8,2.1-11,8.2-8.5,16.1c1.2,3.8,3.1,7.4,4.6,11.1c0.7,1.7,1.4,3.3,0.8,5.2
		c-3.8,3.6-6.7,7.6-6.9,13.1c-0.4,1.9,0.6,3.7,0.1,5.6c-3.6,5.3-8.7,9.2-12.8,14.1c-16.4,19.7-26.1,42.3-29.8,67.5
		c-0.5,3.6-1.1,7.1-0.9,10.7c0.1,2.2-0.8,4-1.8,5.8c-9.6,10.3-19.1,20.5-28.7,30.7c-5.1,5.4-8.3,11.7-9.9,18.9
		c-0.4,1.7-5.8,6.1-7.3,6c-1.6-0.2-1.2-1.7-1.4-2.6c-3.1-10.5-5.1-21.3-6.1-32.2c-3.2-34.3,2.1-67.1,16.4-98.5
		c8.6-18.8,19.8-35.8,34.2-50.7c1.8-0.6,2.8,0.9,4.1,1.5c2.8,1.1,5.6,1.1,7.6-1.4c2-2.6,0.9-4.9-1-7.1
		C389.6,135.7,388.4,135.1,389.1,133.7z"/>
	<path class="st2" d="M663,395c-4.1-6.3-9.3-11.9-14.3-17.5c-0.6-0.3-1.3-0.6-1.8-1.1c-7.1-8.1-14.5-16-20.5-25
		c-4.8-7.2-5-15.4-3-23.6c0.6-2.5,1.4-5.1,4-6.5c1.3-0.1,2,0.8,2.6,1.8c5.3,9.5,14,16.1,21.6,23.5c5.5,5.3,11,10.6,16.5,15.8
		c7.2,6.7,14.3,13.5,21.2,20.5c1.9,1.9,3.5,2.7,5.7-0.1c2.7-3.3,6.3-5.9,10.2-7.8c10.7-5,21.1-10.6,31.9-15.2
		c0.9-0.4,1.8-0.9,2.8-0.8c1.9,0.1,2.6,1,1.6,2.7c-0.8,1.4-2.2,2.5-3.4,3.7c-13.4,13.6-11.2,37.5,8.6,47.2
		c11.6,5.7,24.8,3.5,34.8-8.2c1.7-2,2.6-4.7,5.5-5.4c2.5,4.3,4.7,8.8,6.5,13.5c-0.7,4.4,0.4,8.9-0.5,13.4
		c-3,18.1-13.3,30.2-29.9,37.5c-4.6,2-9.4,3.3-14.3,4.1c-5.2,0.8-5.2,1.2-3,6.1c2.2,4.9,4.8,9.7,7.2,14.5c0.6,1.2,1.7,2.4,0.4,3.8
		c-1.3,0.8-0.9,2.2-1.2,3.4c-1.5,5.3-4.9,8.6-9.6,9.1c-6.1,0.6-9.8-1.3-12.5-6.8c-6-12.3-11.8-24.7-17.6-37.1
		c-3.8-8-7.6-16-11.5-23.9c-0.4-0.9-0.8-1.9-1.5-2.4c-13.2-8.9-20.8-22.8-31.5-34C666.5,398.4,665.6,395.9,663,395z"/>
	<path class="st3" d="M367.1,297.6c3.4-5.7,8.6-9.9,12.9-14.7c8-8.9,16.3-17.4,24.5-26.1c2.2-1,2.1,0.5,1.8,1.8
		c-0.4,1.5-1.6,2.6-2.4,3.8c-4.1,6-5,12.7-3.1,19.5c2.5,9.1,10.7,13.1,20.4,10.8c12-2.9,21.7-15.3,21.3-27.6
		c-0.2-7.4-3.6-12.9-10.3-16.3c-2.6-1.3-4.9-3.4-6.7-5.7c1.5-1.7,3.6-1.9,5.6-2.4c8.2-1.8,16.5-3.4,24.5-6.2c1.4-0.5,3-0.7,4.5-0.5
		c0.7,0.1,1.3,0.3,1.9,0.6c4.8,7.5,8.8,15.5,11.9,23.8c0.8,19.4,13.1,34.4,31.9,38.8c1.9,0.4,3.8,0.7,5.2,2.2c1.8,3,2.2,6.3,2.2,9.6
		c0,6.4,0.7,12.8-1,19c-0.5,1.9,0.6,3.5,0.7,5.2c-1.9,2.1-4.3,1.3-6.6,0.9c-2.5-0.3-4,0.3-4.1,3.1c-0.1,2-0.6,4.1-0.7,6.1
		c-0.2,6.1-0.2,6.1,5.6,7.9c3.2,1.2,5.4,3.9,8.4,5.5c0.9,0.5,1.3,1.4,1.1,2.4c-1.1,2.5-3.4,2.6-5.6,2.8c-6.5,0.4-12.3-1.7-17.6-5.1
		c-1.4-0.9-2.5-2.2-4.5-2.7c-0.9,2,1.3,4.3-0.3,6.2c-1.1,0.8-2.3,1-3.5,0.9c-10.7-1-21.5-0.5-31.9-3.9c-6-1.9-11.5-4.7-16.6-8.2
		c-1.8-1.2-3.3-3-5.5-3.5c-3.2,1.7-5.1,4.7-7.6,7.2c-1.1,1.1-2.1,3.4-4.5,1.7c-0.4-2.1,0.6-3.8,1.3-5.6c4.4-11,4.7-22-0.8-32.6
		c-9.1-17.6-28.8-25.8-47.6-18.1C370.3,299.1,368.3,300.8,367.1,297.6z"/>
	<path class="st1" d="M739.9,352.1c3.7,3,6.9,5.9,12.6,4.2c7.4-2.3,14.7-0.6,21.6,3.1c4.3,2.3,8.9,3.8,13.5,5
		c7.3,3.6,15.3,5.6,22.8,8.5c8.8,3.4,12.8,11.4,9.6,19.5c-3.1,7.9-11.2,10.8-20.1,7.4c-3.1-1.2-6.3-2.1-9.4-3.2
		c-1.3-0.5-2.4-0.7-3.4,0.5c-1.3,1-2.5,2.2-3.5,3.5c-1.6,2.1-3.1,3.3-5.9,2.4c-2.5-0.8-3.4,0.8-3.6,3.2c-0.4,5-3.6,8.1-8.6,8.7
		c-7.2,0.9-14.5-0.3-20.6-3.3c-7-3.5-12.1-9.9-13.4-18.1c-0.7-4.2-2.5-8.5-0.8-13.1c1-2.8,2.2-5.1,5.5-5.4c2.5-0.2,3.7-1.6,3.7-4.1
		c0-4,0.6-7.7,4.4-10.2c-2.8-1.9-5.1-2.3-7.5-0.2c-1.5,1.4-3.7,0.8-5.5,1.6c-6.2,2.6-12.3,5.7-18.3,8.5c-6.2,2.9-13.2,5.8-17.6,12
		c-1.4,2-3.3,2-4.9,0.2c-7.5-8.3-16.3-15.4-24.3-23.2c-6.1-6-12-12.4-19.1-17.5c-6.6-4.9-12.7-10.7-16.4-18.3
		c-0.8-1.6-1.5-3.3-1-5.2c0.2-0.6,0.7-1,1.2-1.3c2.2-0.7,3.3,0.7,4.3,2.3c0.9,1.4,2.1,2.5,3.7,1c1.3-1.2,0.6-2.5-0.5-3.6
		c-0.9-0.9-2.6-1.8-1.4-3.4c1.1-1.4,2.8-0.9,4.2-0.3c3,1.4,5.8,2.2,8.8-0.5c1.7-1.6,3.6,0.6,5.9,0.7c-2.3-1.2-4.7-2-3.3-5
		c3.1-1.7,6-0.1,8.7,0.9c7.2,2.6,13.7,6.6,20.3,10.5c2.1,1.3,4.3,2.6,6.6,3.4c3.2,2.1,6.7,3.7,9.5,6.3c0.5,1.9,2.2,2.2,3.6,3
		c4.4,2.5,9.3,4.2,13.4,7.5c-0.5,1.6-1.2,3.1-0.8,4.8c0.5,2,1.5,3.2,3.7,3.2c2.3-0.1,2.1-1.7,2.1-3.3c0-0.6,0.3-1.1,0.7-1.4
		c5.1,1.6,9.4,5,14.2,7.3C736.3,351.5,737.8,352.6,739.9,352.1z"/>
	<path class="st4" d="M433.8,155.2c-0.4-5.4-3.4-9.9-5.5-14.6c-4.2-9.6,1.3-19.1,10.1-19.6c1.5-0.1,2.2-0.8,2.2-2.4
		c-0.3-7.6,1.5-14.6,5.8-21c4.1-2.7,8-5.8,13.1-6.6c1.5-0.2,1.7-1.7,2.2-2.8c1.6-3.5,4-6.5,7.4-8c3.7-1.6,6.3-4,8-7.5
		c3,0.9,2,3.2,1.6,5c-1.9,8.5-1.5,17.1-1.8,25.7c-0.3,8.7,6.9,16.2,15.2,17.1c9.3,1,18.1-6.1,18.6-15.6c0.4-7.7,1.2-15.5,1.1-23.3
		c-0.1-6.9-3.3-11.6-9.1-14.7c-5.6-3.1-11.2-2.6-16.6,0.6c-3.1,1.8-3,1.8-4.8,0c9.1-10.2,22.6-10.6,39.6-0.8
		c-2.6-9.6-8.7-15.5-17.4-19.5c11.4-0.6,26,10.4,26.4,26.8c0.1,3.1-1.2,6.3,0.7,9.3c0.4,5.8-0.2,11.5-0.7,17.3
		c-0.5,6.3-1.1,12.7-1.1,19c-0.1,9.1-2.9,16.8-8.3,23.8c-9.7,7.6-20.3,10.2-32.2,6.2c-4-1.4-7.3-3.9-10.3-6.8
		c-1.9-1.8-3.5-2.4-5.7-1c-4.5,1.6-9.2,2-13.9,0.9c-3.3-0.8-3.7,0.3-3.4,3.2c0.5,4.8,0.2,9.7,0.2,14.5c0,1.4-0.1,2.8-0.9,4
		c-1.4,2.3-3.3,2.4-5,0.4c-0.4-0.5-0.8-1.1-1.1-1.7c-2.6-5.3-6.7-7.9-12.6-7.6C434.8,155.7,434.3,155.5,433.8,155.2z"/>
	<path class="st1" d="M753.6,491.9c-3.1-6.3-6.2-12.6-9.2-18.8c-2.6-5.2-2.4-5.7,3.1-6.4c10.7-1.4,20.4-5.3,28.6-12.1
		c8.8-7.4,14.4-17,16-28.6c0.7-0.7,1.6-0.6,2.3,0c2.7,2.4,4,5.9,6.9,8.2c0.9,0.7-0.2,2-0.7,3c-0.8,1.4-2.1,2.7-1.3,4.9
		c2-1.6,3.7-3.5,6.2-4.2c5.4,9.8,10.2,20,14.4,30.3c1.8,4.4,0.6,8.7-3.2,12.1c-3.7,3.3-7.8,4-12.3,2.3c-1.1-0.4-2.2-1-3.6-1.7
		c0.3,2.9,1.7,5,2.7,7.1c3.2,6.9,2.4,12.1-2.5,16.2c-4.5,3.7-9.7,3.4-15.9-1.1c-0.3,2.4-0.2,4.8-1,6.8c-1.6,4.5-4.9,7.3-9.9,7.8
		c-4.9,0.5-8.9-1.5-11.1-5.7C759.6,505.3,756.7,498.6,753.6,491.9z"/>
	<path class="st2" d="M226.7,457.3c-0.1-15.8-0.2-31.5-0.2-47.3c0-2.8-0.7-4.8-2.8-6.8c-5.6-5.2-5.8-13.9-0.1-19.7
		c2.5-2.5,2.8-5,2.8-8.1c0.1-3.6-0.5-7.2,0.3-10.7c0.1,4.3,0.2,8.6,0.2,12.9c0,2.4,0.7,3,3,1.9c12.6-6,25.8-10.5,38.2-17.1
		c6.1-3.2,12.9-4,19.8-2.3c1.3,0.3,2.6,0.9,4.1,0.6c4.5,5.2,7.8,11.4,13.3,15.6c2.1,1.6,3.1,3.9,2.7,6.6c-0.3,2.1-0.2,4.3,0.3,6.2
		c1.8,6.1-0.3,11.7-3.4,16.4c-2.4,3.6-5.1,8-10.4,8.7c-1,0.1-1.8,0.6-2.6,1.3c-2.3,2.1-4,2.7-6.3-0.5c-1.8-2.5-5.1-1-7.9-1
		c0.6,1.2,1.7,1.2,2.3,1.9c0.4,0.6,0.8,1.1,0.6,1.9c-0.3,0.9-1.1,1.2-1.9,1.2c-0.6,0-1.1,0-1.6-0.2c-6.7-2.3-13.8-4.3-16.9-11.8
		c-1.2-2.9-3.6-4.4-6.5-5.3c-1.3-1.2-2.6-0.3-3.9,0.2c-2.8,1.1-5.7,2.2-8.4,3.6c-4.6,2.5-9.2,2.3-14.4,0.4c0,4.5,0.1,8.7,0,12.8
		C226.9,431.6,227.6,444.5,226.7,457.3z"/>
	<path class="st2" d="M296.3,357.6c12-7.8,24-15.6,36.6-22.6c0.8,0,1.6,0.1,2.4,0.3c1.1,0.2,2.5,1,3.4-0.2c0.9-1.2-0.6-2.2-0.8-3.4
		c1.3-1.7,3.2-2.4,5.1-3.2c1.2,1.5,0.5,3.5,1.5,5c0.5,0.8,0.4,2.6,1.9,1.8c1.1-0.6,0.2-1.7-0.4-2.4c-1.8-2.2-1.5-4.2,0.2-6.3
		c0.8-1.1,1.6-2.2,2.4-3.3c0.4,0.1,0.7,0.4,0.9,0.7c0.3,2.9,2.8,2.7,4.4,2.5c2.1-0.3,0.6-2.2,0.6-3.4c0-0.8-0.1-1.7,0.2-2.5
		c0.6-1.2,1.6-1.8,3-1.8c0.1,0,0.3,0,0.4,0.1c1.3,2.5,2.4,5.1,5,0.9c0.5-0.8,1.7-0.7,2.7-0.9c1.3-0.2,2.6-0.5,3.3-1.5
		c2.8-3.9,6.4-3.7,10-1.9c0.6-0.4,0.7-0.6,0.7-0.9c-0.4-7.2-0.4-7.6,6.4-6.6c3.6,0.5,6.8-1.4,10.2-0.5c0.8,0.2,1.5,0.6,2.1,1.1
		c1.1,1.4,2.9,2.8,0.3,4.3c-1.5,0.9-3.6-0.6-5.2,0.6c-0.2,1.2,0.7,1.6,1.4,1.7c3.3,0.4,4.2,2.8,4.5,5.6c0.3,2.9-0.9,4.8-3.4,6.1
		c-1.4,0.7-2.7,1.5-3.3,3c-0.8,1.9-2.2,3.2-4.1,3.9c-1.5,0.6-2.4,1.8-3,3.3c-0.6,1.3-1.4,2.4-2.8,2.9c-2.2,0.7-3.6,2-4.1,4.2
		c-0.2,0.7-0.6,1.3-1.1,1.7c-6.1,4.8-10.7,11.1-16,16.6c-1.8,1.9-3.6,3.4-5.5,0.1c-0.4-0.7-0.9-1.7-1.9-0.8
		c-0.9,0.7-0.3,1.5,0.5,1.9c3.1,1.5,2.7,3.5,0.7,5.6c-2.2,2.4-3.7,2.3-6.2-0.4c-0.5-0.6-1-1.1-1.7-0.5c-0.8,0.8-0.4,1.5,0.4,2
		c1.4,0.8,2.8,1.6,2.1,3.5c-0.7,1.8-2.3,2.4-4,2.4c-1.5,0-3,0.3-4.5,0.8c-1.1,0.4-2.5,0.8-3.2,0c-2.6-3.1-7-2.7-9.9-5.9
		c-2.3-2.6-6.6-3.8-10.5-4.4c-3.6-0.6-7-1.5-9.4-4.7c-0.7-0.9-1.9-1.7-2.9-1.4C301.7,361.8,299.1,359.6,296.3,357.6z"/>
	<path class="st5" d="M382.3,271.9c0.7-15.4,3.1-30.5,8.5-45.1c7.8-20.7,19.6-38.6,36.2-53.4c1.9,0.5,2.4,2.2,3.1,3.6
		c2.4,4.5,4.5,9.2,9.6,11.5c0.9,0.4,1.6,1.3,1.6,2.3c0.6,7.5,3.1,14.5,5.3,21.5c-3,4.2-7.4,7-10.8,10.8
		c-5.4,6.2-10.7,12.4-14.8,19.5c-0.6,1-1.4,1.7-2.2,2.4c-15.7,2.1-24.6,13.8-34.3,24.4C383.8,270.3,383,271.1,382.3,271.9z"/>
	<path class="st6" d="M248.7,418.3c1.3,9.5,2.1,19.1,7.4,27.6c5.5,8.8,12.9,15,22.4,18.7c2.1,0.8,2.4,1.9,1.4,3.3
		c-4.3,6.5-6.1,14.1-9.2,21.1c-2,4.4-3.5,9-5.9,13.2c-1.2,2-0.3,4.5-2,6.1c-1.1-0.8-1.7,0.2-2.4,0.7c-4.6,3.4-10.4,3.7-14.6,0.6
		c-4.1-3-5.7-8.4-3.9-13.8c1-3.1,2.3-6.1,3.9-10.2c-4.1,3.2-7.6,5-11.8,3.9c-7.5-2-10.9-9-7.9-16.7c4.1-10.5,8.2-21.1,12.7-31.5
		C242.2,433.8,244.6,425.7,248.7,418.3z"/>
	<path class="st7" d="M519.5,143.7c1.1-4.4,4.9-7.4,5.9-11.8c0.5-2.1,1.4-4.2,1.6-6.4c0.7-11.4,1.2-22.9,1.7-34.4
		c0.1-2.7,0.8-5.2,1.7-7.7c5.4-1.1,10.2,1.8,15.4,2.3c0.8,0.1,1.6,0.2,2.9,0.4c-1.8-4.4-5.7-6.2-9.6-9.5c7.6,1.9,12.3,6.2,16.4,11.2
		c5.4,8.5,5,17.9,3.7,27.3c-0.5,3.6-0.2,7.2-1.2,10.7c-0.3,1.1-0.1,2,1.2,2.7c8.9,4.8,10.8,10.1,7.1,19.4c-1,5.5-4.5,9.7-7.7,14.1
		c-1.5,1-3.2,0.7-4.8,0.5c-4.5-0.6-8.2,0.8-10.8,4.6c-0.9,1.3-1.9,3.2-3.9,2.5c-2.2-0.8-2.4-2.9-2.2-4.9c0.5-4.5,1.2-9.1,1.9-13.6
		c0.5-3-0.2-4.4-3.6-4c-4,0.4-8,0.6-11.9-0.7C521.7,145.9,519.8,145.8,519.5,143.7z"/>
	<path class="st8" d="M481.2,67.6c1.2,1.6,2.3,0.3,3.2-0.3c10.8-7.1,23.4-3.5,27.7,8.4c2.1,5.9,0.9,12.4,0.5,18.6
		c-0.2,2.7-0.5,5.5-0.5,8.2c0,8.3-3.5,14.2-11.1,17.9c-9.3,4.5-19.4-0.7-23.6-8.7c-2.6-5-2.4-10.4-1.6-15.8c0.3-2,0.3-4.1,0.4-6.2
		c0.1-4.3-0.3-8.6,1.4-12.7c0.6-1.3,0.7-3-0.7-4.3C478.1,70.7,479.3,68.9,481.2,67.6z"/>
	<path class="st9" d="M425.4,243.7c6.4,3,13,6,16.2,12.7c3.3,6.8,2.7,13.7-0.7,20.7c-5.5,11.2-13.7,17.5-26.5,17.3
		c-8.7-0.1-14.7-7.2-15.5-14.5c-0.8-7.2-0.3-14.4,5.5-20c0.7-0.7,2.6-2,0.1-3c5.9-6.2,13.4-9.6,22.3-11.3c-1.5-0.3-2.4-0.5-3.2-0.7
		C423.9,243.9,424.1,242.9,425.4,243.7z"/>
	<path class="st10" d="M357.8,319.2c-0.8,0.5-1.6,1-2.5,1.5c-1.7,2.1-3.5,4-6.6,3.5c-0.1-0.3-0.1-0.6-0.2-0.8
		c1.6-7.1,5.3-13,10.4-18.1c2.7-2.6,5.3-5.2,8-7.8c1,1.2,2.2,1,3.4,0.4c23.5-11.7,49.9,4.9,53.9,28.2c1.4,7.9,1.2,16.3-3,24
		c-0.9,1.5-1.2,3.4-1.7,5.1c-0.4,3.6-3,5.1-5.9,6.5c-6.3,4.4-12.8,8.7-20.6,10.1c5.4-7.3,10.9-14.6,16.3-22c6.7-9.2,6-24.4-1.5-32.8
		c-4.2-1.5-6.4-5.4-10-7.8c-0.5-0.3-1.1-0.5-1.6-0.8c-9.6-2.1-18.6-1.3-27,4.6C365.8,315.6,362.4,318.5,357.8,319.2z"/>
	<path class="st0" d="M697.7,329.6c-4-0.4-6.4-3.8-9.8-5.3c-9-14-21.9-24.4-33.7-35.8c-1.6-1.5-3.3-3-4-5.2
		c-0.2-1.1-0.3-2.1-0.2-3.2c0-0.7,0.1-1.3,0.3-2c0.7-3.5,0.7-7-0.1-10.6c-0.5-13.4-3.6-26.2-7.3-39c0.6-2.8,1.8-1.8,3-0.4
		c2.4,3.1,3.9,6.7,5.8,10.1c13.6,24,27.2,48,41,71.9c0.8,1.4,1.7,2.8,1.3,4.7c-1.1,5.9,0.4,7.6,6.1,7
		C699.6,324.5,699.5,327.3,697.7,329.6z"/>
	<path class="st2" d="M397.9,309.3c4.3,1.3,7.1,4.6,10,7.7c-2.9,7.1-8.4,12.3-13.9,17.3c-9.1,8.4-17.7,17.3-26.5,26
		c-6.8,6.7-13.5,13.4-20.3,20.1c-2.3,2.2-4.6,1.6-7.1,0c-12.4-7.9-26.7-11.5-40-17.5c-0.4-0.2-1,0-1.7,0c0.1,2.3,1.8,3.3,3.1,4.3
		c10.6,8,12.6,26.1,6.7,37.5c-7.7,14.9-29.5,20.2-42.5,11.3c-3.6-2.5-6.7-5.1-9.2-8.7c-0.7-1-1.3-2.2-2.8-2.3c0-1,0.1-2.1,0.1-3.1
		c3.3-2.2,5.6,0.6,6.3,2.6c2,5.3,5.8,8.1,10.5,10.6c2.5,1.3,4.8,2.5,7.5,3c0.8,0.1,1.8,0.7,2-0.5c0.2-1-0.7-1.3-1.6-1.5
		c-1.4-0.3-3.6,0.3-3.3-2c0.3-1.9,2.4-1.3,3.9-1.4c2.1-0.1,4.2,0,6.2,0c1.2,0,2.4,0.3,2.4,1.7c0.1,4.5,2,1.9,3.1,0.8
		c1.4-1.4,2.4-3,4.8-2c0.2,0.1,0.5-0.1,0.8-0.2c2-0.6,8-8.1,8.3-10.3c0.1-0.5-0.1-1.4,0.2-1.6c6.1-4,0.9-9.7,2-14.4
		c0.2-0.7-0.6-1.8-0.4-2.4c2-4.5-1.1-6.8-4-8.9c-2.4-1.7-4-3.8-5.2-6.3c-0.6-1.2-1-2.5-2.2-2.9c-2.8-1-3.2-3.1-3-5.6
		c1.1-1.4,2.6-2.4,4.3-3.1c1,1.3,4.8-3.5,4.1,1.9c-0.1,1.1,1.6,0.5,2.4,0.2c3.1-1.1,5.6-0.1,7.3,2.4c1.3,1.9,2.9,2.9,5.1,3
		c5.2,0.2,9.3,3.8,14.4,4.4c2.4,0.3-1.3,3.3,1.4,3.6c1.4,0.2,2.9-1.3,4.2,0.3c1.1,1.4,2.3,3.7,4,3.1c2.9-0.9,5.8-1.3,8.7-1.6
		c0.8-0.1,1.4-0.9,1.4-1.9c-0.1-1.1-0.9-1.3-1.8-1.3c-1.7-0.1-2.7-0.8-2.5-2.5c0.2-1.5,1.3-2.5,2.8-2.8c1.8-0.3,2.4,0.8,2.5,2.5
		c0,0.8,0.2,1.9,1.4,1.5c1.9-0.6,3.5-1.8,4.2-3.7c0.4-1.2-0.6-1.7-1.7-1.7c-1.7,0-2.7-0.8-2.5-2.5c0.2-1.5,1.3-2.5,2.8-2.7
		c1.8-0.3,2.3,0.9,2.5,2.5c0.5,3.1,2.4,1.4,3,0.4c3.2-5.7,9.7-8.5,12.3-14.7c0.6-1.5,2.8-0.9,3.5-2c2.2-3.4,4.8-6.1,8.2-8.5
		c1.9-1.3,2.7-4.7,5.9-5.3c0.9-0.2,1.1-1.1,1.3-2c0.6-2.2,1.9-3.6,4.1-4.2c2.4-0.7,3.5-2.4,2.9-4.7c-0.5-2,0.1-5-3.7-4.7
		c-1.8,0.2-3.5-1.1-3.2-3c0.5-2.7,3-1.8,4.8-1.7c0.9,0.1,2,1.1,2.7,0.1C399.9,311,398.2,310.3,397.9,309.3z"/>
	<path class="st11" d="M700.2,321.9c-1.5,0.8-3.6,3.4-4.7,1.5c-1.3-2.4-6-4.4-2.5-8.4c1.2-1.4-0.4-2.6-1-3.7
		c-7.8-13.8-15.7-27.7-23.6-41.5c-7.7-13.5-15.3-26.9-23-40.4c-0.4-0.7-0.3-2.1-1.7-1.8c-2.2-0.2-2.2-2.2-2.8-3.6
		c-0.9-2.2-1.9-3.2-4.3-2c-2.2,1.1-4,0.2-5.4-1.6c-2.6-3.1-4-6.9-5.9-10.4c-0.9-1.7-0.1-2.9,1.3-3.8c2.7-1.7,2.4-3.7,0.9-6
		c-1.9-2.9-3.3-6.1-5.4-8.8c-0.8-1-2-2.1-0.9-3.6c-2.8-7-7-13.2-10.6-19.7c-8.8-15.7-17.8-31.3-26.7-47c-0.8-1.4-1.1-2.7-3.9-2.3
		c-3.2,0.5-3.5-3.9-5.1-6.1c-1.2-1.7,1-2.1,2-2.9c0.2-0.2,0.5-0.3,0.7-0.4c1.7-0.6,3.3-3.3,5-1.9c1.9,1.6,2.9,4.3,4.2,6.6
		c0.1,0.2,0.1,0.7,0,0.8c-4.4,3.1-0.5,5.6,0.8,7.9c14.6,25.8,29.3,51.5,43.9,77.4c1.4,2.5,2.7,3.3,5,1.3c2-1.7,3.3-1.3,4.5,1
		c1.6,3.1,3.4,6,5.3,8.9c1.4,2.1,1.2,3.4-1.2,4.4c-3.3,1.3-3.2,3-1.5,6c16.7,29.1,33.3,58.2,49.8,87.4c1.1,1.9,1.4,4.6,5,3
		c1.8-0.8,1.7,2.6,3.4,3C703,317.8,704.7,320.7,700.2,321.9z"/>
	<path class="st12" d="M630.3,318.4c1.6,7.4,6.2,13,11.7,17.8c3.4,3.1,8.1,5.2,10.8,8.5c4.4,5.3,10,8.9,14.7,13.6
		c5.1,5.1,9.3,11.2,15.5,15.3c3.3,2.1,5.6,5.3,8.1,8.2c1.4,1.6,2.8,1.9,3.5,0.1c1.6-4.2,5.7-5.9,8.9-7.5c4.7-2.2,8.3-6.6,13.9-7.1
		c4.8-0.4,7.7-4.7,12.1-6.1c3.2-1.1,6.9-0.8,9.7-3.7c0.6-0.6,4.9,0.5,7.8,2.4c-5.6,2.7-6.2,7.5-5.9,12.6c0.1,1.9-1.2,3-3.1,3.3
		c-1.8,0.3-4.1-0.6-5.1,1.8c-1.2,2.7-2.3,5.6-1.5,8.4c0.7,2.4,0.8,4.7,1.2,7c1.3,7.5,6,13.8,12.3,17c6.7,3.3,14.7,4.5,22.6,3.2
		c2.9-0.5,5.6-4.5,5.4-7.7c-0.2-4,2.2-5.7,5.8-4c1.9,0.9,2.6,0.7,3.4-1.2c0.9-2.2,2.8-3.2,5.2-3.6c0,0.7-0.1,1.5-0.1,2.2
		c-2.9,3.3-4.9,7.2-8.5,10c-8.1,6.4-16.4,8.9-26.9,6.3c-11.2-2.8-18.2-9.8-21.5-20.1c-4.2-13-0.4-24.4,10-33.5
		c0.5-0.4,1.3-0.6,1.1-1.8c-2.8-0.3-5.4,1.2-7.4,2.3c-9.1,5-18.7,8.9-27.9,13.7c-4.3,2.2-8.3,4.9-11.2,9c-1.2,1.8-2.7,1.8-4.2,0.6
		c-1.1-0.9-2.1-1.8-3-2.8c-9.9-9.9-20.3-19.2-30.2-29c-8.3-8.2-17.4-15.7-24.9-24.8c-1.9-2.3-2.5-5.3-4.7-7.3
		C627,319.4,628.1,318.5,630.3,318.4z"/>
	<path class="st13" d="M425.4,243.7c-0.6,0.4-1.2,0.7-1.8,1.1c-1.6,0.1-3.2,0.2-4.8,0.2c2.6-7,7.3-12.7,12.1-18.1
		c3.9-4.4,7.4-9.3,12.4-12.7c0.9-0.6,1.6-1.6,2.8-1.5c2.4,0.6,2.5,3.3,4.2,4.5c3.4,5.1,8.3,9.1,10.9,14.8c0.2,1.1-0.1,2.1-0.9,2.9
		c-7.6,0.9-14.6,4.3-22.1,5.5C434,241.3,429.7,242.7,425.4,243.7z"/>
	<path class="st5" d="M690.3,196.1c-4-0.3-8.3,0.8-11.9-1.9c-3.4-2.5-6.4-5.3-6.2-10c0.2-4.8,3.5-6.8,7.4-8.1
		c3.3,0.1,6.6,0.4,9.4,2.6C696.2,184.1,696.6,189.3,690.3,196.1z"/>
	<path class="st14" d="M623,431.4c-0.3-0.6-0.6-1.2-1-1.8c-3.3-4.7-3.2-9.3,0.2-12.3c2.8-2.5,8.6-2,12.2,1c0.9,0.8,1.8,1.7,2.7,2.5
		c0.8,2.2,2.4,4.1,2.2,6.6c-0.6,6.1-6.6,9.1-12.4,6.2C625.6,433,624.3,432.2,623,431.4z"/>
	<path class="st15" d="M644,101.8c-1.5,0.1-2.5-0.7-3.1-1.8c-1.8-3.2-3.8-2.6-5.9-0.5c-2,1.9-3.9,3.5-6.2,0.6
		c-2.1-2.8-0.3-4.7,1.9-6.1c2.3-1.5,2.2-2.7,0.4-4.5c-0.9-0.8-1.6-1.9-2.1-3c-0.7-1.5-0.3-3.2,1-4.1c1.3-1,3.1-0.9,4.2,0.4
		c2.7,3.4,5.1,3.9,8.2,0.3c1.2-1.4,3.2-1.7,4.7,0.1c1.3,1.6,1.6,3.7,0,4.8c-4,2.9-2.9,5.4-0.2,8.2c1.1,1.1,1.4,2.4,0.6,3.8
		C646.7,101.3,645.5,102,644,101.8z"/>
	<path class="st5" d="M389.1,133.7c0.3,0.3,0.5,0.7,0.8,0.9c4,3.7,4.8,7,2.5,10c-2.1,2.8-7.2,3-10.9,0.5c-0.7-0.5-1.3-1.1-1.9-1.6
		c-2.2-2.6-2.8-5.9-0.8-8.4C381.4,131.8,385.4,132.4,389.1,133.7z"/>
	<path class="st1" d="M805.3,437.9c-0.1,1.3-0.2,3.2-1.7,2.6c-2-0.8-1.4,0.5-1.8,1.3c-0.6,1.2-1.3,2.7-3.1,1.9
		c-1.3-0.6-2.4-2-1.3-3.4c2.7-3.5,3.4-6.4-0.8-9.6c-1.7-1.2-1.7-4.5-4.6-4.8c-0.1-3.9,1.1-7.7,0-11.6c-0.3-1-0.3-2.4,1.6-1.7
		c0.8,1.9,1.1,4.1,2.6,5.7c-0.3,3.6,2.5,5.7,4,8.5C801.9,430.5,803.6,434.2,805.3,437.9z"/>
	<path class="st12" d="M720.4,343.3c0,0.4,0,0.8,0,1.2c-0.1,1.3,2.3,2.6,0.2,4c-1.8,1.2-3.7,1-5.6,0.4c-2.7-0.9-2-3.7-2.6-5.7
		c-0.5-1.7,0.5-2.9,2.3-3.2C716.6,341.1,719.3,340.8,720.4,343.3z"/>
	<path class="st16" d="M372,131.9c-2.3-0.1-4-1-4.1-3.6c-0.1-2.3,1.1-3.3,3.3-3.1c2.2,0.2,4.1,0.9,4.2,3.6
		C375.5,131.2,374.2,132,372,131.9z"/>
	<path class="st2" d="M346.2,326.7c-0.5,2.6-1,5.1,2,6.9c0.9,0.5,0.6,1.7-0.1,2.6c-0.7,0.9-1.6,1.5-2.8,1.4c-1-0.1-1.4-0.7-1.5-1.6
		c-0.1-2.5-2.7-4.6-0.9-7.3C344,327.9,344.8,326.8,346.2,326.7z"/>
	<path class="st2" d="M337.9,331.8c2.4,0.2,2.8,1.9,2.5,3.8c-0.4,2.5-2.3,1.2-3.6,1.2c-1.6,0-2.9-0.5-3.9-1.8
		C334.3,333.5,335.9,332.4,337.9,331.8z"/>
	<path class="st1" d="M800.2,426.8c-2.3-0.7-1.9-4.3-4.8-4.4c0.3-1.4,0.5-2.7,0.8-4.1C798,420.9,799.1,423.8,800.2,426.8z"/>
	<g>
		<path class="st0" d="M1006.2,312.1c0-2.9-0.9-3.4-3.5-3.4c-15.5,0.1-31.1-0.1-46.6,0.2c-3.9,0.1-5.1-0.7-5.1-4.9
			c0.1-71.2,0.1-142.4,0.1-213.6c0-1.5,0-2.9,0-5.4c-70,90.3-141.8,177.8-211.2,267.2c1.8,4.2,6.5,6.9,10.9,5.7
			c7.9-2.1,15.4-1.2,22.5,2.6c3.3,1.8,6.9,2.8,10.4,4.1c1.3,0.5,2.6,1,3.9-0.2c0.6,0,1.1-0.1,1.7-0.1c33.7,0,67.5,0,101.2-0.1
			c3,0,3.3,1.2,3.3,3.6c-0.1,28.7,0,57.5-0.1,86.2c0,3,0.5,4,3.8,4c16.5-0.2,33-0.2,49.6,0c3.2,0,4.2-0.7,4.2-4.1
			c-0.1-28.3,0-56.6-0.2-85c0-3.6,0.6-4.9,4.6-4.8c15.7,0.3,31.4,0.1,47.1,0.2c2.6,0,3.5-0.6,3.5-3.4
			C1006,344.5,1006,328.3,1006.2,312.1z M893.8,305c0,3.2-0.8,3.9-3.9,3.9c-15.8-0.2-31.6-0.1-48.5-0.1c17.1-23.4,34-45.8,51.6-67.7
			c1.3,0.9,0.7,2.1,0.7,3.1C893.7,264.4,893.6,284.7,893.8,305z"/>
	</g>
	<path class="st17" d="M784.9,338.5c-0.2,1.2-0.6,2.4-1.8,3c-1.5,0.7-3.1,0.6-4.1-0.8c-2.3-3.3-4.3-3.4-7-0.3
		c-1.4,1.6-3.5,1.8-5-0.2c-1.4-1.8-1.1-3.8,0.7-5.1c2.8-2,3.1-3.8,0.4-6.1c-1.8-1.5-2.3-3.7-0.4-5.5c1.8-1.7,4-1.2,5.4,0.8
		c2.2,3.2,3.9,2.4,6.1,0.1c1.6-1.7,3.7-2,5.4,0c1.5,1.8,0.9,3.7-0.8,5c-2.7,2-3.1,4-0.2,6.1C784.4,336.2,784.7,337.3,784.9,338.5z"
		/>
	<g>
		<path class="st0" d="M281.7,312.5c0.1-3.3-1.2-3.8-4.1-3.8c-15.3,0.1-30.5-0.1-45.8,0.2c-4.1,0.1-5.3-0.9-5.3-5.2
			c0.2-70.8,0.1-141.6,0.1-212.4c0-1.7,0-3.4,0-5.1c-73,93-148,184-220.5,278c53.7,0,106.2,0,158.6-0.1c3.9,0,4.7,1.1,4.7,4.8
			c-0.1,28.3,0,56.6-0.2,85c0,3.4,1,4.1,4.2,4c16.4-0.2,32.8-0.1,49.1-0.1c1.4,0,2.8,0.4,4-0.5c0-16.1-0.1-32.1,0.1-48.2
			c0-3.1-0.6-5.5-2.6-7.9c-3.7-4.4-4.4-9.6-1-14.2c3.3-4.4,3.8-8.9,3.6-14c-0.1-2.8-0.2-5.5,0.1-8.3c1.2-1,2.7-0.5,4-0.5
			c8.1,0,16.1-0.2,24.2,0c3.8,0.1,7-1,10-3.2c4-2.8,8.2-5.2,13.1-5.9c2.8-0.4,3.6-1.6,3.5-4.3C281.6,338.1,281.5,325.3,281.7,312.5z
			 M167.1,308.8c-16.3,0-32.7,0-50,0c17-23.3,33.9-45.7,52.4-67.2c0,21.6,0,43.2,0,64.8C169.5,308.1,168.9,308.8,167.1,308.8z"/>
	</g>
	<path class="st18" d="M270.2,332.4c4.9,0,9.4,4,9.4,8.2c0,3.5-3,6.1-7,6c-4.5-0.1-8.9-4.1-9-8.1
		C263.6,334.4,265.7,332.4,270.2,332.4z"/>
	<path class="st19" d="M261.7,328.6c-0.1,2.1-1.4,3.2-3.4,3.2c-2.4,0-4.3-1.1-4.6-3.7c-0.3-2.5,1.4-3.5,3.5-3.5
		C259.6,324.7,261.4,325.9,261.7,328.6z"/>
	<path class="st20" d="M630.3,318.4c-1.3,0.8-2.3,1.8-2.5,3.4c-6.3,9.2-5.5,23.6,1.6,32.1c6.5,7.8,12.9,15.8,19.3,23.7
		c-7.2-0.4-13.7-3-19.5-7.2c-3.3-2.4-6.5-5.1-9.7-7.7c-2.4-0.6-3.8-2.7-5.5-4.2c-3.1-2.9-6-6.1-9.2-8.9c-2.6-2.3-4.7-2.6-6.8,0.4
		c-16.5,14.6-36.1,18.3-57.3,16c-2.9-3.7-6.4-6.8-9.3-10.4c-2-2.4-3.7-2.4-5.8-0.3c-1.5,1.6-3.3,2.9-5.3,4c-1.3,0.7-2.7,1.5-4.2,0.3
		c-2.6-2.9-6-4.8-9.2-6.8c1.5-1.6,3.6-1.2,5.4-1.3c4.6-0.2,4.7-0.3,4.9-5c0.1-2.1,0.3-4.1,0.6-6.1c0.4-2.9,0-5.3-3.6-5.7
		c-0.7-0.1-1.3-0.5-1.6-1.2c-2.6-0.8-2.6-2.4-2.1-4.8c2.2-9.7,1.9-19.4-0.4-29c1.1-1.4,2.7-1.2,4.2-1.3c31.2-1.6,48.6-33.4,33-60.6
		c-1-1.8-2.5-3.3-2.7-5.5c0.8-2.6,2.8-1.8,4.5-1.5c5.8,1,11.2,3.2,16.7,5.2c15.8,5.8,31.7,11.1,47.5,16.6c8,2.8,14.4,7.6,20.6,13
		c5.2,4.6,9.9,9.7,14.8,14.6c1,1,1.4,2.4,2.2,3.5c8.7,8.6,17.4,17.2,26.2,25.7c4.5,4.4,8.6,8.9,10.5,15.1c-7.5-3-14-8.1-21.3-11.4
		c-4.4-2-8.7-4.1-13.7-4.2c-3,1.9-6.6,1.3-9.9,2.2c-4.7,1.2-7.7,5-11.9,6.8C630.8,317.8,630.6,318.1,630.3,318.4z"/>
	<path class="st21" d="M540.6,365.2c8.1-0.3,16.3,0.7,24.3-0.9c8.9-1.8,17.7-4,25.1-9.9c2.6-2.1,5.3-3.9,7.9-5.9
		c1,0.7,1.5,1.7,1.7,2.8c1.6,8,3.6,16,5,24c0.2,0.8-0.1,1.7-0.2,2.5c-11.2,11.1-24.5,19-38.9,24.9c-17.5,7.2-35.7,10.1-54.5,9.1
		c-26.1-1.4-49.8-10-70.8-25.7c-0.5-0.4-1-1-1.4-1.5c-3.4-7.8-4.2-16.3-6-24.5c-0.8-3.5-1.5-7-2.2-10.5c-0.3-1.8-0.9-3.5,0-5.3
		c3.7-0.2,5.5,3.1,8.1,4.8c8,5.3,16.7,8.2,26.1,9.4c7.9,1,15.9,1.2,23.9,1.6c1.9,0.3,2.6,1.9,3.5,3.3c10.5,15.3,30.5,17.4,44,4.6
		C537.5,366.8,538.6,365.2,540.6,365.2z"/>
	<path class="st22" d="M430.5,344.3c3.1,13.3,6.1,26.7,8.2,40.3c-9.7-6.1-17.3-14.5-25-22.8c2-2.2,3.9-4.3,5.9-6.5
		C423.6,351.9,426.4,347.4,430.5,344.3z"/>
	<path class="st22" d="M604.4,377.7c-2.8-7.8-3.6-16-5.5-24c-0.4-1.7-0.6-3.5-1-5.3c2.3-3.4,4.4-3.3,7.3-0.2
		c4.7,4.9,9.9,9.2,14.4,14.4C614.8,367.9,609.8,373.1,604.4,377.7z"/>
	<path class="st23" d="M620.6,408c-0.2,2.7-1.6,4-4.3,3.9c-3.1-0.1-6-2.8-5.9-5.8c0-3,1.8-4.2,4.5-4.2
		C617.9,402,620.7,405.1,620.6,408z"/>
	<path class="st5" d="M621.2,187.9c2.6,4.3,5.1,8.8,7.9,13c1.9,2.8,1.4,4.7-1.5,6c-2.4,1.1-2.1,2.2-0.8,4.1c1.9,2.9,3,6.2,5.2,9
		c1.5,1.9,2.8,2.7,4.7,0.9c2.3-2.3,3.4-1.1,4.6,1.2c0.9,1.9,0.8,4.1,2.3,5.7c4.5,12.9,7.5,26.1,7.7,39.8c0.4,3.7,0.5,7.4,0,11.1
		c0,0.5-0.1,1-0.1,1.6c-2.7-0.4-2.2-2.9-2.7-4.5c-5-17.6-12.8-33.6-24.7-47.6c-14.7-17.4-32.5-30.3-54.1-37.9
		c-4.3-1.5-8.8-2.5-12.8-4.8c-0.5-2.6,1.5-4.3,2.6-6.3c2.5-4.6,3.2-9-0.3-13.5c-0.9-1.2-1.6-2.6-0.8-4.2c2.6-4.5,5.3-8.9,7.9-13.4
		C588,156.5,606.2,170.1,621.2,187.9z"/>
	<path class="st24" d="M662.9,165c3.7,0,6.8,2.6,6.8,5.8c0,3.1-1.7,4.4-4.7,4.5c-3.7,0.1-7.2-2.9-7.1-6.1
		C657.9,166.6,659.8,165,662.9,165z"/>
	<path class="st2" d="M460.5,231.8c-3.6-4.6-7.2-9.2-10.9-13.8c-4.5-8.5-7.1-17.4-6.3-27.1c0.2-2-0.5-3.5-2.8-3.9
		c-4.8-0.9-7.5-4.3-9.6-8.4c-1.8-3.6-3.7-7.1-4.4-11.1c0.6-5.2,1.8-10.1,7.3-12.4c6.8-2.1,11.3,0.1,15.2,7.1
		c0.7,1.3,0.7,3.9,2.9,3.2c1.9-0.6,2-2.8,1.9-4.6c-0.2-5.7,0.3-11.3-0.6-17c-0.5-3,0-4.1,3.4-2.8c5.1,2,10.3,1.1,15.4-0.1
		c1.5-0.2,3-0.1,4.4,0.8c12.8,8.5,22,19.8,24.7,35.3c1.3,7.4,1.6,15.1-0.4,22.5c-4.8,1.7-9.8,1.1-14.7,1.7c-3.1,0.4-6.4,0-9.6,0.1
		c-3.6,0.1-4.3,1.2-3.7,4.8c1.5,8.2,10.9,15.9,20.5,16.8c1.9,0.2,3.9-0.2,5.6,1.1c0.7,1.1,0.4,2.1-0.5,3c-5.2,1.8-10.2,1.3-14.5-0.9
		c3.5,3,8.3,3.5,13.2,4c1.7,0.7,2.2,2.2,2,3.8c-0.3,3.7-0.6,7.5-3.1,10.6c-1.6,1.1-3.4,1.2-5.2,1
		C479.2,244.3,468.6,240.7,460.5,231.8z"/>
	<path class="st25" d="M377.6,193.8c-1.2,1.1-2.3,2-3.3,2.9c-1.9,1.7-4,2.3-5.8,0.1c-1.6-1.9-1.1-4.1,0.8-5.4
		c3.2-2.2,3.1-4.2,0.5-6.7c-1.8-1.7-2.9-4-0.5-6.1c2.3-2,4.6-0.9,6,1.3c1.9,2.8,3.4,2.4,5.5,0.2c1.8-2,4.1-2.6,6.1-0.4
		c2,2.2,1.3,4.4-0.9,6c-2.5,1.8-3.1,3.4-0.4,5.7c2,1.8,3.2,4.1,0.6,6.4c-2.4,2-4.3,0.5-6-1.4C379.4,195.4,378.5,194.6,377.6,193.8z"
		/>
	<path class="st26" d="M426.5,167.5c1.9,3.7,3.8,7.4,5.6,11.1c2.1,4.2,5.1,7.2,10.1,7.5c1.4,0.1,2.5,0.4,2.3,2.1
		c-0.9,10.1,1.2,19.8,5.1,29.1c0.1,0.2,0,0.5,0,0.8c-1.7-1.4-2.4-3.5-3.4-5.3c-3.3-6.6-5.3-13.6-5.8-21c0-0.8,0.1-1.8-0.8-2.1
		c-7.2-2.3-8.6-9.3-11.8-14.7c-0.3-0.5-0.5-1-0.8-1.5C426.5,171.5,426,169.5,426.5,167.5z"/>
	<path class="st27" d="M460.5,231.8c3.8,0.4,5.4,4.1,8.5,5.6c8.4,4.2,16.9,7.4,26.5,6.8c3.8-1.9,8-1.9,12-2.9
		c8.7-2.2,16-6.6,22.3-12.9c0.8-0.8,1.6-1.5,2.4-2.3c3.3-3.1,3.3-3.1,6.5,0.3c11.7,15.5,11.5,36.4-1,49.7
		c-4.4,4.7-9.4,9.1-16.3,10.1c-4.8-1.1-7.2-4.9-9.6-8.6c-4.4-6.7-8-13.9-11.3-21.2c-1.7-3.6-4-5.2-7.8-5.7
		c-9.4-1.1-17.9-4.6-25.4-10.3c-2-1.5-3.4-3.6-5.3-5.2c-0.5,0-1.1-0.1-1.6-0.1C460.4,234,460.5,232.9,460.5,231.8z"/>
	<path class="st28" d="M521.4,285.3c15.4-4.2,26.9-22,24.6-37.9c-1.1-7.5-4.2-14.2-8.1-20.5c-0.4-0.5-0.5-1.1-0.1-1.7
		c4.1,0.4,5.8,3.4,7.5,6.6c14.1,17.6,11.8,40.2-1.2,54.3c-9,9.8-20.4,13.8-33.5,13.4c-10.6-1.5-19.9-5.7-27.1-13.9
		c-6.8-7.7-10.2-16.6-10.3-26.9c3,0.3,3.2,3.1,4.2,5c3.9,7.9,9.2,14.4,17.2,18.5c6.7,3.4,13.7,5.2,21.2,3.4
		C517.6,285.1,519.5,285.8,521.4,285.3z"/>
	<path class="st2" d="M521.4,285.3c-16.4,6.2-34.9-1.6-43.7-18.3c-1.5-2.8-2.4-5.9-4.6-8.3c-2.6-7.1-6.6-13.6-9.8-20.5
		c-0.5-1-0.8-2-1.3-3c4.4,1.7,7.4,5.5,11.4,7.9c7,4.2,14.5,5.8,22.3,6.9c2.7,0.4,3.8,1.6,4.8,3.7c3.5,7.5,7.2,14.9,11.5,22
		C514.3,279.6,516.9,283.4,521.4,285.3z"/>
	<path class="st29" d="M540.6,365.2c-6,7-13.1,12-22.6,12.4c-12.1,0.5-21.4-4.5-27.7-15c-0.5-0.8-1-1.6-1.6-2.4
		c-0.5-1.8-1.1-3.7-1.6-5.5c-0.2-0.9-0.5-2,0.6-2.6c1-0.6,1.8,0.2,2.5,0.9c4.4,3.9,9.4,6.6,15.3,7.6c3.7,0.7,7.4,0.8,10.8-1.1
		c4.1-0.5,7-3,9.6-5.9c2.1-2.3,3.8-2.1,5.7,0.2c2.2,2.6,4.6,5.1,7,7.5C539.7,362.4,540.8,363.4,540.6,365.2z"/>
	<path class="st14" d="M512.9,333.2c7.3,0.7,7.3,0.8,6.4,8.3c-0.3,2.7-0.5,5.5-0.5,8.3c0,2.1-0.8,3-3,2.9c-2.9-0.1-5.8-0.1-8.7-0.1
		c-0.1-0.1-0.2-0.2-0.3-0.2c-6.5-1.4-6.6-1.4-6.3-8.4c0.1-3.4-0.4-7.5,1.2-10.1c2.1-3.2,6.3,0,9.6-0.5
		C511.8,333.3,512.3,333.3,512.9,333.2z"/>
	<path class="st9" d="M387.1,287c0-3.6,2.6-6.8,5.6-6.7c2.5,0,4.1,1.6,4.3,4.1c0.3,2.8-3.5,6.5-6.5,6.3
		C388.1,290.6,386.6,289.5,387.1,287z"/>
	<path class="st12" d="M631,317.6c5.7-6.7,13-9.6,21.8-9c-0.1,2.3,1,3.2,3.3,3.3c1.4,0,2.7,0.6,2.3,2.2c-0.5,1.7-2,1-3.1,0.6
		c-1-0.4-2-0.8-3-1.3c-0.8-0.5-1.7-0.7-2.2,0.2c-2.1,4.3-5.2,2.3-8,1.2c-1.5-0.5-2.8-2-4.6-0.7c-0.1,1.4,1.1,1.5,1.9,1.9
		c1.7,0.9,2,2.2,1.7,3.8c-0.3,1.7-1.4,2.6-3.1,2.8c-1.7,0.2-3-0.4-3.6-2.1C633.7,319,633.3,317.3,631,317.6z"/>
	<path class="st12" d="M727.7,349.7c-0.1,0.7-0.3,1.5-1.1,1.5c-1,0-1.2-0.9-1.2-1.7c0-0.7,0.1-1.5,1-1.4
		C727.3,348.1,727.7,348.9,727.7,349.7z"/>
	<path class="st1" d="M537.8,225.2c0,0.5,0,1.1,0.1,1.6c-1.5-1.5-2.4-2.7-4.6-0.1c-8.3,9.7-19.1,15.2-31.7,17.3
		c-2,0.3-4.1,0.2-6.2,0.3c0.8-3,1.8-5.9,2.4-9c0.3-1.5,1.1-3.7-1.5-4.4c1.5-3.2,5.4-2,7.2-4.1c-1.6,0.2-3.6,1.7-5.5-0.1
		c0.3-0.8,0.6-1.6,0.8-2.4c1.1-2,3.4-2.2,5.2-3.1c7.1-3.4,11.8-8.6,13.5-16.4c0.9-4.2,0.1-5-4.1-4.6c-3,0.3-6.1,0.2-9.1,0.2
		c-1.4,0-2.8,0.1-3.8-1.2c0-3.7-0.1-7.5,0-11.2c0.8-18.8-7.6-32.8-22.4-43.6c-1.9-1.4-3.8-2.7-6-3.5c2.3-2.2,4-1.5,6.2,0.6
		c10.6,10.7,25.6,11.9,37.9,3.1c1.1-0.8,2-1.4,3.4-1.1c5.5,3.2,11.5,3.1,17.3,1.9c3.5-0.7,3.9,0.6,3.5,3.3
		c-0.7,4.9-1.4,9.8-2.2,14.8c-0.2,1.4-0.3,2.7,0.2,4.1c0.6,1.6,1.6,2.1,2.5,0.4c3.6-6.8,9-8.4,16.1-6.3c0.4,0.1,1-0.4,1.5-0.6
		c0.2,0.9,0.3,1.8,1.1,2.6c4.4,4.9,4.6,10.1,1.1,15.5c-1.2,1.8-2.2,3.8-3.3,5.7c-0.4,4.3-3.7,6.3-7.1,7.9c-2.4,1.1-3.6,2.5-3.9,5.2
		c-0.7,8.1-3,15.7-7.4,22.6C538.1,222.2,538.2,223.8,537.8,225.2z"/>
	<path class="st8" d="M467.9,119.2c0.5,2.6-0.7,5.4-1,8.3c-0.4,2.9-4.4,4.9-8,4.3c-3.2-0.5-5.8-2-5.9-5.8c-0.1-2.8-0.1-5.5,0-8.3
		c0.1-5.9,2.9-9.2,7.7-9.2c4.9,0.1,7.2,3,7.2,9.1C467.9,118,467.9,118.4,467.9,119.2z"/>
	<path class="st8" d="M462.9,99.1c-0.1-2.9,0.2-5.6,3.4-5.7c2.9-0.1,4.2,2,4.1,5.1c-0.1,3-0.6,6.2-3.9,6.3
		C463.4,104.8,462.7,101.8,462.9,99.1z"/>
	<path class="st2" d="M357.8,319.2c5.2-3.3,10.3-7.1,15.8-9.9c7.3-3.7,15-4.5,22.7-0.8c-4,0.4-7.9,0.8-11.9,1.2
		c-0.1,0-0.3,0.1-0.4,0.1c-3.4-0.2-4.1,1.1-2.7,4.9c0.4,1,0.8,1.8-0.2,2.5c-0.9,0.7-1.8,0.3-2.6-0.3c-2.9-2.2-5.6-2.3-7.9,1
		c-0.8,1.1-1.8,2.3-3.3,2.2c-2.4-0.1-4.3,0.1-4.8,3.1c-0.1,1-1.4,1.2-2.4,1c-1.3-0.2-1.8-1-2-2.2
		C357.8,321.1,358.8,320.1,357.8,319.2z"/>
	<path class="st2" d="M348.8,324.3c2.2-1.2,4.4-2.3,6.6-3.5c0.3,1.3,0.8,2.7,0.8,4c-0.1,1.8,1.2,6-3.2,2.6c-0.2-0.2-0.6-0.3-0.7-0.3
		C346.5,331.7,350.1,325,348.8,324.3z"/>
	<path class="st30" d="M537.8,225.2c-1.4-1.3-1.5-2.6-0.3-4.4c5.2-7.5,7.3-16,7.9-25c0.1-1.3,0.1-2.8,1.6-3
		c4.9-0.7,7.6-4.2,10.3-7.7c11.4,2.8,22.2,6.9,32.3,12.7c15.4,8.7,28.3,20.2,39,34.3c10.4,13.6,17.2,28.9,21.6,45.4
		c0.2,0.9,0.1,2,1,2.6c0,1.1,0,2.2,0,3.3c-6.9-6.6-13.8-13.2-20.8-19.7c-4.8-4.5-10.2-7.8-16.5-10c-20-6.9-39.9-14-59.9-20.9
		c-2.8-1-5.7-2.1-8.8-1.1C542.6,229.6,540.7,226.8,537.8,225.2z"/>
	<path class="st30" d="M651.3,278.6c0-3.7,0-7.4,0-11.1C652.1,271.2,652.2,274.9,651.3,278.6z"/>
	<path class="st31" d="M500.4,199.2c4.8,0.1,9.6,0.3,14.4-0.5c3.6-0.6,4.8,0.9,4.2,4.4c-1.9,11.8-9.2,18.3-20.3,21.2
		c-10.7,0.7-19.2-2.9-25-12.2c-0.4-0.6-0.7-1.2-1-1.8c-4-8.4-3-10,6.1-10.2C486,200,493.2,199.5,500.4,199.2z"/>
	<path class="st32" d="M477.7,177.7c-0.1,2-1,3.4-2.7,4.3c-1.8,1-3.5,0.7-5-0.5c-2.3-1.7-3.4-8.6-1.8-11.1c2-3.1,6.3-2.8,8.1,0.5
		C477.4,173.1,476.9,175.6,477.7,177.7z"/>
	<path class="st32" d="M470.5,154.3c2.7-0.2,4.9,1.2,6.6,3.3c0.7,0.8,1,1.8,0.4,2.7c-0.7,1.1-1.6,0.4-2.5,0c-4.7-2-6.4-1.5-9.8,2.8
		c-0.5,0.7-1,1.4-2,1.2c-1.2-0.3-1.1-1.4-1.1-2.4C462.2,157.6,465.8,154.3,470.5,154.3z"/>
	<path class="st27" d="M497.9,226.8c2.9,0.4,5.4-1.7,8.9-1.6c-3,3.7-6.9,4.5-10.6,5.8c-6.5,0.5-11.7-1.9-16-7
		C485.9,226.5,491.8,227.4,497.9,226.8z"/>
	<path class="st33" d="M524.5,177.9c0,1.1,0.2,2.3,0,3.3c-0.6,2.6-2.3,4.4-5,3.9c-4.7-0.9-4-4.8-4.1-8.2c-0.1-3.2,1-5.5,4.4-5.8
		C523.2,170.6,524.6,172.7,524.5,177.9z"/>
	<path class="st34" d="M521.4,147.9c4.3,0,8.6,4.7,8.1,8.9c-0.1,1-0.3,2-1.5,2.2c-1,0.2-1.5-0.6-1.8-1.4c-2.1-4.4-5.3-5.7-9.8-3.7
		c-0.9,0.4-1.6,0.3-2.1-0.6c-0.4-0.7,0-1.3,0.4-1.9C516.4,149.1,518.9,148.4,521.4,147.9z"/>
	<path class="st35" d="M492.3,221c-4.4,0.6-8.2-1.3-11.4-4.8c-2-2.2-1.5-3.5,1-4.7c6.4-3,14.4-1.4,19.5,3.7c1.6,1.6,1.2,2.5-0.2,3.7
		C498.8,221,495.8,221.1,492.3,221z"/>
	<path class="st36" d="M514.3,200.8c-11.8,8.8-29,9.3-38.6,1.3C488.5,201.7,500.9,201.3,514.3,200.8z"/>
	<path class="st37" d="M471.8,173.3c-0.1,1-0.3,2-1.6,1.9c-1.3-0.1-1.4-1.1-1.4-2c0-0.9,0.5-1.6,1.4-1.7
		C471.5,171.3,471.8,172.3,471.8,173.3z"/>
	<path class="st38" d="M519.4,175.5c-0.1,1-0.3,2-1.5,2c-1.1,0-1.1-1-1.1-1.8c0-0.9,0-2.1,1.3-2
		C519.1,173.8,519.3,174.6,519.4,175.5z"/>
</g>
</svg>
