<?xml version="1.0" encoding="utf-8"?>
<!-- Generator: Adobe Illustrator 26.1.0, SVG Export Plug-In . SVG Version: 6.00 Build 0)  -->
<svg version="1.1" id="Layer_1" xmlns="http://www.w3.org/2000/svg" xmlns:xlink="http://www.w3.org/1999/xlink" x="0px" y="0px"
	 viewBox="0 0 480 254.16" style="enable-background:new 0 0 480 254.16;" xml:space="preserve">
<g>
	<path d="M105.55,176.93c1.51,0.28,2.44-0.27,3.18-1.15c0.98-1.15,1.92-2.35,2.84-3.56c2.99-3.95,5.84-7.98,7.98-12.48
		c1.33-2.8,2.95-5.47,4.31-8.25c1.26-2.58,2.46-5.2,3.52-7.87c1.75-4.41,3.43-8.85,5.04-13.31c1.87-5.18,3.34-10.47,4.02-15.97
		c0.55-4.47,1.56-8.88,2.03-13.35c0.59-5.62,1.32-11.26,0.73-16.95c-0.37-3.49-0.61-6.99-0.85-10.49c-0.03-0.51,0.14-1.14,0.44-1.55
		c1.69-2.35,6.03-2.91,8.36-1.2c1.19,0.88,1.71,2.14,1.68,3.43c-0.09,3.4,1.6,6.31,2.32,9.48c1.41,6.21,3.02,12.39,4.28,18.64
		c0.78,3.9,1.23,7.89,1.52,11.86c0.27,3.73,0.12,7.49,0.18,11.24c0.04,2.47,0.16,4.95,0.19,7.42c0.03,2.51-0.35,5.08,0.06,7.52
		c0.71,4.22,0.6,8.44,0.68,12.66c0.01,0.36,0.04,0.72,0.1,1.07c0.28,1.64,0.71,2.02,2.33,1.75c4.17-0.68,8.34-1.38,12.5-2.14
		c1.84-0.34,3.67-0.78,5.47-1.26c1.73-0.47,2.73-1.59,3.09-3.42c0.21-1.05,0.73-2.13,1.39-2.98c1.3-1.64,3.57-1.96,5.3-0.87
		c1.65,1.04,2.97,2.42,3.84,4.19c0.84,1.72,0.65,3.33-0.56,4.81c-0.43,0.53-0.9,1.02-1.31,1.56c-0.66,0.84-0.88,1.76-0.55,2.81
		c0.47,1.48,0.87,2.99,1.35,4.46c0.28,0.85,0.71,1.86,1.71,1.7c0.67-0.11,1.38-0.83,1.8-1.46c1.18-1.75,1.76-3.64,1.5-5.87
		c-0.18-1.51,0.17-3.11,0.45-4.63c0.38-2.01,1.95-3.37,3.86-3.56c1.74-0.17,3.09,0.83,4.11,2.71c1.07,1.98,0.85,3.98,0.58,6.06
		c-0.24,1.82-0.34,3.66-0.39,5.49c-0.06,1.96,0.64,2.57,2.63,2.77c4.14,0.43,6.69-1.31,8.58-5.11c0.42-0.85,0.69-1.78,1.01-2.69
		c0.76-2.18,0.57-4.2-0.81-6.13c-0.92-1.29-1.66-2.73-2.43-4.12c-1.32-2.36-0.93-4.48,1.02-5.82c1.96-1.34,4.09-0.94,5.86,1
		c1.86,2.03,3.32,4.25,4.26,6.86c0.96,2.66,2.62,4.73,5.56,5.48c1.03,0.26,1.87,0.07,2.68-0.57c1.34-1.05,2.43-2.27,3.17-3.83
		c2.18-4.56,5.58-8.1,9.42-11.33c2.52-2.12,7.79-1.85,10.11,0.04c1.15,0.93,2.54,1.6,3.89,2.25c2.17,1.05,3.48,4,2.58,6.29
		c-1.3,3.3-2.71,6.56-4.01,9.87c-0.39,0.99-0.64,2.05-0.82,3.1c-0.13,0.79,0.3,1.4,1.12,1.61c2.97,0.78,5.87,0.27,8.7-0.61
		c1.07-0.34,1.29-1.42,1.43-2.45c0.61-4.49,0.5-9,0.26-13.5c-0.26-4.98-0.51-9.95-0.71-14.93c-0.05-1.15,0.13-2.31,0.19-3.46
		c0.03-0.6,0.17-1.24,0.02-1.79c-1.15-4-0.35-8.1-0.64-12.15c-0.37-5.21-0.37-10.46-0.27-15.68c0.06-3.22,0.57-6.42,1.61-9.53
		c1.09-3.25,4.44-4.95,7.4-3.18c4.62,2.76,8.87,6.04,11.15,11.19c0.69,1.57,1.34,3.16,1.95,4.76c0.21,0.55,0.37,1.16,0.36,1.75
		c-0.08,5.89,0.46,11.81-0.76,17.66c-0.12,0.57,0.02,1.19-0.01,1.79c-0.08,1.82-0.07,3.66-0.28,5.47c-0.34,2.89-0.75,5.78-1.27,8.64
		c-0.39,2.11-0.96,4.19-1.52,6.27c-0.48,1.8-0.93,3.63-1.63,5.35c-1.62,3.94-3.39,7.82-5.09,11.73c-0.13,0.31-0.25,0.63-0.37,0.95
		c0.08,0.09,0.17,0.19,0.25,0.28c0.4-0.23,0.84-0.42,1.19-0.71c2.93-2.47,4.94-5.57,6.37-9.12c0.8-1.99,1.91-3.86,2.82-5.81
		c0.79-1.7,1.46-3.45,2.23-5.16c0.37-0.83,0.75-1.7,1.31-2.4c1.61-2.02,4.08-2.02,5.58,0.08c2.03,2.86,3.5,6.04,3.93,9.54
		c0.36,2.92,0.33,5.89,0.51,8.84c0.05,0.83,0.15,1.68,0.37,2.48c0.27,0.98,1.01,1.43,2.03,1.19c1.09-0.26,2.23-0.44,3.21-0.94
		c0.72-0.36,1.3-1.11,1.77-1.81c0.84-1.24,1.53-2.59,2.33-3.87c1.16-1.86,2.26-3.77,3.59-5.51c0.72-0.95,1.81-1.63,2.79-2.36
		c1.37-1.04,2.82-1.96,4.16-3.03c1.34-1.08,2.8-1.69,4.51-1.64c1.84,0.06,3.71-0.01,5.5,0.34c2.54,0.49,4.34,2.27,5.92,4.22
		c0.55,0.68,0.97,1.46,1.39,2.24c0.55,1.01,1.36,1.37,2.48,1.25c2.02-0.21,4.06-0.61,6.06-0.48c5.33,0.33,8.54,2.13,9.58,7.38
		c0.12,0.59,0.65,1.09,0.99,1.63c0.45-0.51,0.97-0.97,1.34-1.53c0.2-0.3,0.22-0.77,0.21-1.16c-0.05-3.31-0.18-6.62-0.18-9.92
		c0-2.43,0.15-4.86,0.26-7.29c0.12-2.55,0.22-5.1,0.42-7.65c0.26-3.18,0.68-6.34,0.92-9.52c0.13-1.71,0.02-3.43,0.02-5.15
		c0-0.96-0.01-1.91,0.05-2.87c0.32-5.21,0.58-10.44,1.03-15.64c0.44-5,1.08-9.99,1.64-14.98c0.04-0.32,0.16-0.63,0.15-0.94
		c-0.06-6.63,1.19-13.17,1.41-19.79c0.05-1.43-0.1-2.87-0.04-4.3c0.09-1.86,0.09-3.75,0.51-5.55c0.48-2.06,0.83-3.96-0.41-5.88
		c-0.22-0.33-0.11-1.24,0.19-1.48c1.84-1.53,1.96-3.69,2.23-5.77c0.47-3.67,0.76-7.37,1.23-11.04c0.35-2.78,2.19-4.2,4.99-4.06
		c1.91,0.1,3.11,0.96,3.72,3c1.34,4.5,2.54,9.05,3.88,13.55c0.49,1.62,1.29,3.15,1.86,4.75c0.38,1.06,0.63,2.17,0.88,3.28
		c0.11,0.5,0.01,1.04,0.1,1.55c0.83,4.42,1.55,8.87,2.59,13.25c0.6,2.52,1.39,4.96,1.6,7.58c0.38,4.85,0.34,9.7,0.31,14.56
		c-0.01,1.63,0.3,3.28,0.17,4.9c-0.36,4.68-0.84,9.36-1.34,14.03c-0.18,1.66-0.51,3.31-0.85,4.95c-0.84,4.1-1.35,8.32-2.68,12.26
		c-1.38,4.09-2.25,8.43-4.74,12.1c-0.27,0.39-0.52,0.84-0.6,1.3c-0.71,4.02-3.16,7.29-4.67,10.97c-1.04,2.54-2.49,4.9-3.8,7.33
		c-1.32,2.45-1.63,4.97-0.78,7.64c0.29,0.91,0.51,1.85,0.74,2.78c0.44,1.81,1.03,2.35,2.86,2.46c2.71,0.16,5.43,0.47,8.14,0.42
		c5.53-0.11,10.92,1.02,16.23,2.2c3.71,0.82,7.3,0.62,10.92,0.4c3.36-0.2,6.6,0.34,9.9,0.66c0.84,0.08,1.76-0.01,2.56-0.26
		c2.51-0.77,4.91-1.69,7.69-0.86c1.76,0.53,3.72,0.45,5.59,0.57c3.73,0.23,5.74,3.36,4.36,6.84c-0.49,1.22-0.34,1.81,0.91,2.43
		c2.56,1.27,5.24,2.33,7.75,3.69c3.29,1.77,6.27,3.98,8.49,7.07c0.49,0.68,0.95,1.38,1.45,2.05c2.5,3.34,3.45,7.21,2.85,11.19
		c-0.74,4.97-2.99,9.47-6.43,13.16c-1.57,1.69-3.73,2.85-5.66,4.19c-3.63,2.52-7.71,3.83-12.07,4.27c-2.93,0.3-5.88,0.43-8.82,0.52
		c-2.19,0.07-4.45,0.29-6.56-0.15c-6.84-1.43-13.6-3.21-20.06-5.9c-2.7-1.12-5.14-2.89-7.72-4.32c-4.68-2.6-8.41-6.29-11.91-10.27
		c-1-1.14-2.28-2.05-3.18-3.25c-2.17-2.9-4.25-5.88-6.27-8.9c-1.22-1.82-2.27-3.76-3.34-5.67c-0.61-1.1-1.51-1.46-2.69-1.37
		c-2.39,0.18-4.78,0.36-7.17,0.51c-4.78,0.32-9.58,0.51-14.34,0.97c-3.77,0.37-7.5,1.09-11.25,1.6c-2.18,0.3-4.36,0.52-6.55,0.73
		c-6.12,0.57-12.24,1.15-18.37,1.66c-3.46,0.29-6.94,0.41-10.4,0.71c-6.04,0.54-12.07,1.18-18.11,1.74
		c-4.69,0.43-9.39,0.81-14.08,1.2c-4.89,0.41-9.79,0.78-14.68,1.21c-7.07,0.62-14.15,1.27-21.22,1.94c-3.06,0.29-6.11,0.69-9.17,1
		c-7.62,0.79-15.25,1.52-22.87,2.34c-7.7,0.83-15.4,1.68-23.09,2.63c-4.83,0.59-9.63,1.45-14.46,2.05
		c-7.17,0.89-14.36,1.66-21.54,2.49c-4.76,0.55-9.52,1.15-14.28,1.67c-3.09,0.34-6.2,0.58-9.3,0.86c-4.89,0.45-9.78,0.92-14.67,1.32
		c-6.13,0.51-12.26,0.98-18.39,1.42c-6.94,0.5-13.88,0.57-20.83,0.36c-2-0.06-4-0.02-5.99-0.07c-1.07-0.03-2.15-0.09-3.22-0.24
		c-3.52-0.48-7.05-0.91-10.54-1.55c-2.82-0.51-5.59-1.35-8.4-1.93c-1.7-0.35-3.37-0.7-4.71-1.9c-0.06-0.05-0.13-0.11-0.2-0.13
		c-3.19-0.61-5.53-2.96-8.48-4.09c-3.33-1.29-3.97-4.28-1.38-6.75c0.97-0.93,2.26-1.76,3.55-2.08c7.31-1.85,14.63-3.68,22.01-5.24
		c6.4-1.35,12.9-2.26,19.32-3.5c7.01-1.35,13.99-2.83,20.97-4.31c1.78-0.38,2.03-0.85,1.77-2.62c-0.46-3.09,0.43-5.84,2.12-8.37
		c1.47-2.19,2.95-4.37,4.51-6.49c0.55-0.75,1.24-1.59,2.05-1.92c1.79-0.73,3.68-1.39,5.58-1.67c2.92-0.43,5.77,1.27,7.07,3.91
		c0.27,0.55,0.55,1.26,0.44,1.82c-0.44,2.26-0.94,4.51-1.59,6.71C106.9,173.92,106.19,175.34,105.55,176.93z M195.44,174.75
		c0-0.11,0.01-0.23,0.01-0.34c-3.3,0.27-6.6,0.5-9.9,0.83c-3.77,0.37-7.55,0.74-11.3,1.28c-3.74,0.54-7.45,1.24-11.16,1.98
		c-1.36,0.27-1.47,0.87-0.72,2.09c0.77,1.25,1.65,2.47,2.24,3.8c1.28,2.87,2.59,5.75,2.62,9c0,0.43,0.15,0.87,0.29,1.28
		c0.4,1.21,1.15,1.64,2.4,1.39c0.94-0.19,1.86-0.49,2.81-0.59c3.02-0.33,6.05-0.5,9.06-0.91c3.68-0.5,7.31-1.29,11-1.73
		c4.35-0.53,8.73-0.82,13.1-1.24c1.87-0.18,3.72-0.46,5.59-0.68c5.23-0.61,10.45-1.28,15.68-1.8c4.17-0.41,8.35-0.61,12.53-0.94
		c3.18-0.25,6.36-0.52,9.54-0.82c1.62-0.15,3.24-0.39,4.86-0.59c1.07-0.13,2.13-0.33,3.2-0.4c2.9-0.2,5.8-0.28,8.69-0.55
		c5.48-0.51,10.94-1.32,16.42-1.62c3.34-0.18,6.63-0.54,9.94-0.94c7.41-0.9,14.87-1.31,22.31-1.97c5.84-0.52,11.67-1.13,17.5-1.71
		c0.24-0.02,0.57,0,0.69-0.14c0.22-0.27,0.51-0.73,0.41-0.95c-1.04-2.28-3.02-3.33-5.53-3.09c-3.43,0.33-6.85,0.5-10.28-0.08
		c-3.26-0.56-6.15-1.76-8.47-4.24c-0.43-0.46-1.26-0.69-1.92-0.74c-3.51-0.22-7.02-0.4-10.53-0.48c-1.25-0.03-2.58,0.06-3.76,0.46
		c-1.6,0.53-3.05,0.66-4.64-0.02c-1.61-0.7-3.11-0.42-4.35,0.95c-1.04,1.15-2.07,2.34-3.24,3.35c-1.47,1.28-2.98,2.56-4.65,3.56
		c-2.29,1.38-5.1,0.46-6.35-1.9c-0.43-0.8-0.68-1.7-1-2.56c-0.46-1.25-0.95-1.41-2.2-0.93c-1.93,0.74-3.87,1.51-5.86,2.06
		c-4.14,1.15-7.56-0.66-10.76-2.96c-0.82-0.59-1.55-1.01-2.51-0.68c-1.69,0.58-3.37,1.22-5.03,1.86c-2.82,1.09-5.57,2.38-8.45,3.27
		c-2.69,0.83-5.05-0.18-6.86-2.3c-0.8-0.93-1.71-1.37-2.91-1.34c-2.08,0.04-4.16,0.07-6.23,0.04c-1.22-0.02-2.21,0.37-3.2,1.09
		c-3.47,2.54-7.33,3.7-11.49,2.12C200.53,174.97,198.13,174.2,195.44,174.75z M428.34,217.26c0.02-0.09,0.03-0.19,0.05-0.28
		c1.24,0,2.52,0.21,3.7-0.04c3.78-0.78,7.53-1.71,11.28-2.64c0.5-0.12,0.94-0.58,1.37-0.92c1.05-0.83,2.04-1.74,3.13-2.52
		c1.71-1.21,3.59-2.41,4.09-4.51c0.84-3.54,0.45-6.97-2.01-9.95c-2.33-2.82-5.2-4.91-8.38-6.67c-0.71-0.39-1.42-0.93-1.93-1.56
		c-1.04-1.29-2.3-2.16-3.83-2.76c-2-0.77-4.02-1.54-5.93-2.51c-2.8-1.41-5.72-2.24-8.83-2.35c-0.91-0.03-1.89,0.23-2.75,0.57
		c-1.1,0.43-2.2,0.7-3.23,0.13c-1.7-0.95-3.45-0.77-5.25-0.56c-3.25,0.38-6.5,0.78-9.76,1.06c-3.74,0.32-7.49,0.48-11.23,0.77
		c-2.23,0.17-4.45,0.42-6.67,0.71c-1.61,0.21-2.09,0.98-1.53,2.5c0.38,1.04,0.85,2.08,1.46,3c3.15,4.77,6.81,9.15,10.9,13.12
		c1.67,1.62,3.79,2.78,5.54,4.34c5.52,4.96,12.62,6.65,19.19,9.44c0.11,0.05,0.23,0.08,0.35,0.1
		C421.5,216.25,424.92,216.75,428.34,217.26z M126.59,200.81c0.01,0.07,0.01,0.15,0.02,0.22c3.77-0.35,7.55-0.64,11.31-1.08
		c5.51-0.65,10.99-1.46,16.5-2.12c2.88-0.35,3.24-0.92,2.08-3.6c-1.46-3.36-2.92-6.73-4.3-10.12c-0.65-1.6-1.62-2.6-3.43-2.69
		c-0.59-0.03-1.16-0.3-1.75-0.4c-1.17-0.19-2.37-0.57-3.51-0.46c-3.25,0.31-6.47,0.88-9.71,1.27c-4.2,0.5-8.41,0.87-12.61,1.4
		c-1.97,0.25-3.91,1.04-5.87,1.05c-2.36,0-4.04,1.04-5.61,2.52c-2.2,2.07-4.69,3.69-7.38,5.06c-3.49,1.78-6.93,1.48-10.22-0.24
		c-2.12-1.1-4.07-2.41-6.61-1.73c-0.15,0.04-0.32,0.01-0.48-0.03c-2.02-0.5-4.04-0.18-5.9,0.49c-4.44,1.59-9.18,1.6-13.7,2.79
		c-3.16,0.83-6.38,1.39-9.58,2.05c-0.98,0.2-1.97,0.32-2.95,0.51c-5.36,1.04-10.73,2.06-16.08,3.17c-0.74,0.15-1.37,0.8-2.06,1.22
		c0.74,0.45,1.44,1.02,2.24,1.33c1.77,0.7,3.57,1.32,5.38,1.87c1.64,0.5,3.29,0.97,4.98,1.25c2.79,0.46,5.61,0.76,8.42,1.11
		c0.87,0.11,1.75,0.24,2.62,0.19c2.03-0.11,4.06-0.37,6.09-0.5c2.11-0.13,4.22-0.2,6.33-0.25c1.99-0.04,4,0.14,5.98-0.04
		c4.03-0.37,8.03-0.78,12.05,0.14c0.76,0.17,1.6,0.12,2.39,0.03c3.12-0.38,6.24-0.8,9.35-1.25c3.75-0.55,7.48-1.25,11.24-1.7
		C116.74,201.69,121.67,201.29,126.59,200.81z M377.99,54.62c-0.15,0.38-0.34,0.65-0.36,0.94c-0.11,1.31-0.37,2.65-0.22,3.93
		c0.31,2.6-0.26,5-1.19,7.36c-1.12,2.85-1.76,5.86-1.76,8.87c0,2.16,0.17,4.27-0.55,6.36c-0.13,0.37-0.14,0.79-0.16,1.18
		c-0.2,3.82-0.42,7.63-0.57,11.45c-0.18,4.42-0.25,8.85-0.49,13.26c-0.24,4.42-0.61,8.82-0.96,13.23
		c-0.33,4.17-0.78,8.34-1.06,12.51c-0.08,1.21,0.23,2.45,0.36,3.68c0.17,0.03,0.34,0.07,0.52,0.1c0.63-0.99,1.39-1.92,1.87-2.98
		c1.51-3.33,3.17-6.63,4.32-10.09c1.64-4.95,2.94-10.01,4.25-15.06c0.4-1.52,0.37-3.16,0.52-4.74c0.16-1.66,0.23-3.33,0.46-4.98
		c0.16-1.14,0.68-2.25,0.73-3.38c0.21-4.22,0.54-8.47,0.36-12.68c-0.31-7.32-0.67-14.68-2.89-21.75c-0.72-2.3-1.74-4.51-2.64-6.75
		C378.46,54.93,378.25,54.84,377.99,54.62z M146.4,107.63c-0.14,0.4-0.33,0.79-0.42,1.2c-0.77,3.5-1.56,7-2.27,10.51
		c-1.11,5.52-2.27,11.01-4.9,16.07c-0.29,0.56-0.47,1.19-0.69,1.78c-1.68,4.35-3.32,8.72-5.05,13.05c-0.67,1.67-0.44,2.51,1.26,3.17
		c0.97,0.37,2.03,0.55,2.93,1.04c2.9,1.57,6.01,2.09,9.24,2.14c1.82,0.03,2.26-0.28,2.19-2.12c-0.15-4.1-0.46-8.2-0.6-12.31
		c-0.14-4.14-0.15-8.29-0.2-12.44c-0.03-2.87-0.03-5.75-0.04-8.62c-0.01-1.7-0.15-3.42,0-5.11
		C148.1,113.09,147.64,110.35,146.4,107.63z M277.85,146.49c0.18,0.02,0.36,0.04,0.55,0.06c0.3-0.49,0.7-0.94,0.88-1.47
		c0.35-1.02,0.67-2.06,0.82-3.12c0.57-4.15,1.98-8.11,2.7-12.25c0.55-3.17,1.66-6.27,1.84-9.56c0.11-2.03,0.56-4.03,0.64-6.06
		c0.1-2.54-0.09-5.1-0.02-7.65c0.07-2.41-0.84-4.53-2.18-6.31c-1.25-1.66-3.01-2.94-4.61-4.31c-0.4-0.34-1.16-0.65-1.56-0.49
		c-0.41,0.16-0.71,0.89-0.84,1.42c-0.14,0.61-0.07,1.27-0.05,1.91c0.05,2.2,0.14,4.39,0.17,6.59c0.1,5.78,0.1,11.56,0.28,17.33
		c0.22,7.14,0.56,14.28,0.88,21.42C277.41,144.85,277.69,145.67,277.85,146.49z M121,175.89c3.04-0.4,6.09-0.81,9.13-1.2
		c1.74-0.22,3.48-0.38,5.21-0.65c1.65-0.25,3.28-0.63,4.92-0.9c1.22-0.2,2.46-0.27,3.68-0.47c1.2-0.2,1.49-0.8,0.95-1.86
		c-0.9-1.76-1.93-3.39-3.94-4.14c-0.54-0.2-1.08-0.6-1.43-1.05c-1.25-1.64-2.98-2.02-4.88-2.06c-0.8-0.01-1.61,0.15-2.39,0.03
		c-1.11-0.17-2.27-0.38-3.28-0.83c-1.34-0.6-1.78-0.54-2.47,0.74c-0.72,1.33-1.5,2.62-2.29,3.9c-1.4,2.28-2.85,4.52-4.22,6.81
		C119.26,175.44,119.58,175.88,121,175.89z M161.7,170.71c1.23-0.25,2.98-0.69,4.75-0.94c4.78-0.67,9.57-1.25,14.35-1.89
		c1.47-0.19,1.7-0.62,1.27-1.99c-0.48-1.56-0.92-3.13-1.32-4.71c-0.35-1.4-0.87-1.81-2.31-1.55c-5.42,0.98-10.83,1.97-16.24,3
		c-0.47,0.09-1.01,0.39-1.3,0.76c-0.7,0.92-1.36,1.88-1.86,2.92C158.13,168.2,159.4,170.74,161.7,170.71z M331.31,149.54
		c-5.56,0.71-8.48,2.01-10.6,7.19c-0.15,0.37-0.1,0.83-0.14,1.25c0.45,0.03,0.95,0.2,1.36,0.08c2.17-0.67,4.37-1.29,6.45-2.19
		c1.82-0.78,3.53-1.86,5.24-2.9c1.24-0.76,1.28-1.62,0.07-2.4C332.85,150.03,331.84,149.76,331.31,149.54z M342.57,163.61
		c4.69-0.37,6.48-0.29,8.92-1.74c1.65-0.98,1.89-2.26,0.45-3.53c-0.54-0.47-1.4-0.67-2.14-0.81c-1.24-0.23-2.51-0.37-3.76-0.41
		c-0.66-0.02-1.44,0.11-1.97,0.46c-1.38,0.93-2.65,2.03-3.96,3.07c-0.31,0.25-0.63,0.5-0.87,0.82c-0.66,0.88-0.39,1.63,0.69,1.82
		C340.9,163.47,341.9,163.54,342.57,163.61z M249.28,147.14c-0.39,0.33-1.21,0.78-1.7,1.47c-1.41,1.98-2.7,4.04-3.99,6.1
		c-0.25,0.39-0.24,0.95-0.34,1.42c0.53-0.01,1.13,0.14,1.57-0.07c1.26-0.59,2.41-1.41,3.67-2c1.97-0.92,2.9-2.51,3.24-4.56
		C251.96,148.09,251.21,147.17,249.28,147.14z M354.08,176.19c0.11,0.19,0.21,0.38,0.32,0.57c0.58,0.03,1.16,0.11,1.74,0.09
		c1.75-0.06,3.5-0.18,5.24-0.23c0.95-0.03,1.91,0.1,2.86,0.04c0.38-0.02,0.93-0.28,1.05-0.58c0.11-0.28-0.13-0.84-0.4-1.12
		c-0.63-0.66-1.32-1.27-2.05-1.82c-1.68-1.27-2.97-1.24-4.67,0c-0.8,0.59-1.61,1.17-2.41,1.76
		C355.21,175.34,354.64,175.77,354.08,176.19z M294.74,153.58c-0.15-0.03-0.3-0.05-0.46-0.08c-0.13,0.08-0.31,0.12-0.38,0.24
		c-1.45,2.46-2.91,4.92-4.31,7.42c-0.35,0.63,0.1,1.14,0.73,1.19c1.06,0.08,2.13,0.06,3.19,0c0.92-0.05,1.32-0.64,1.3-1.53
		c-0.02-1.03-0.07-2.07-0.08-3.1C294.73,156.34,294.74,154.96,294.74,153.58z M384.69,174.77c0-0.17,0-0.34,0.01-0.51
		c-2.47-0.13-4.95-0.3-7.42-0.34c-0.5-0.01-1.01,0.5-1.52,0.78c0.43,0.4,0.82,1.09,1.3,1.16
		C379.69,176.25,382.25,175.85,384.69,174.77z M224.14,164.73c0.01,0.04,0.01,0.07,0.02,0.11c0.89-0.15,1.8-0.26,2.68-0.48
		c0.28-0.07,0.64-0.45,0.67-0.72c0.03-0.26-0.26-0.71-0.52-0.82c-1.02-0.43-2.05-0.86-3.13-1.1c-0.92-0.21-2.15,0.92-2.18,1.95
		c-0.04,1.26,1.03,0.91,1.74,1.05C223.66,164.77,223.9,164.73,224.14,164.73z M241.62,162.98c1.51,0.87,2.23,0.66,2.68-0.78
		C243.37,162.47,242.61,162.69,241.62,162.98z"/>
	<path d="M183.84,223.81c-0.27-1.28-0.53-2.89-0.97-4.45c-0.96-3.37,1.38-7.7,4.67-8.43c0.5-0.11,1.04-0.14,1.54-0.07
		c2.37,0.35,5.76,4.08,5.62,6.47c-0.15,2.65-0.24,5.38-1.87,7.69c-1.17,1.66-2.37,3.31-3.66,4.87c-0.91,1.1-2.12,1.04-3.27,0.02
		C184.17,228.38,183.22,226.54,183.84,223.81z"/>
</g>
</svg>
