<svg xmlns="http://www.w3.org/2000/svg" fill="none" viewBox="0 0 24 24" id="Cloudinary-Icon--Streamline-Svg-Logos" height="24" width="24">
  <desc>
    Cloudinary Icon Streamline Icon: https://streamlinehq.com
  </desc>
  <path fill="#3448c5" d="M7.140225 11.213075c0.0172 0 0.033675 0.0069 0.04575 0.01915l2.162725 2.164675c0.01785 0.018325 0.0231 0.045525 0.013375 0.069175 -0.009725 0.023675 -0.03255 0.039325 -0.05815 0.039825h-0.55285c-0.0358 0 -0.065125 0.02845 -0.066175 0.06425V18.43675c0.000775 0.30805 0.123225 0.6033 0.340675 0.8215l0.323125 0.32315c0.01785 0.018325 0.0231 0.045525 0.013375 0.069175 -0.009725 0.023675 -0.03255 0.039325 -0.05815 0.039825H6.753825c-0.64505 0 -1.167975 -0.522925 -1.167975 -1.167975V13.57015c0 -0.035475 -0.028775 -0.06425 -0.06425 -0.06425h-0.54505c-0.02595 0.000275 -0.0495 -0.015075 -0.0597 -0.038925 -0.010225 -0.02385 -0.0051 -0.051475 0.012975 -0.070075l2.164675 -2.164675c0.012075 -0.01225 0.02855 -0.01915 0.045725 -0.01915Zm4.782925 1.25365c0.0172 0 0.033675 0.0069 0.04575 0.01915l2.164675 2.156875c0.018075 0.0186 0.0232 0.04625 0.012975 0.070075 -0.010225 0.02385 -0.033775 0.0392 -0.0597 0.038925H13.534c-0.0358 0.001075 -0.06425 0.0304 -0.06425 0.0662V18.43675c0.000275 0.307775 0.122 0.603 0.338725 0.8215l0.3251 0.32315c0.018075 0.018575 0.0232 0.046225 0.012975 0.070075 -0.010225 0.023825 -0.033775 0.0392 -0.0597 0.038925H11.542575c-0.64505 0 -1.167975 -0.522925 -1.167975 -1.167975V14.82185c0 -0.035825 -0.02845 -0.06515 -0.06425 -0.0662h-0.5509c-0.025575 -0.0005 -0.048425 -0.01615 -0.05815 -0.039825 -0.0097 -0.02365 -0.00445 -0.05085 0.013375 -0.069175l2.162725 -2.160775c0.012075 -0.01225 0.02855 -0.01915 0.04575 -0.01915Zm4.783875 1.240175c0.016875 0 0.03305 0.00685 0.044775 0.018975l2.164675 2.162725c0.019225 0.01815 0.025375 0.046225 0.0155 0.07075 -0.0099 0.02455 -0.033825 0.0405 -0.060275 0.0402h-0.5548c-0.035475 0 -0.064225 0.028775 -0.064225 0.06425v2.37295c0.000775 0.30805 0.123225 0.6033 0.34065 0.8215l0.32315 0.32315c0.01785 0.018325 0.0231 0.045525 0.013375 0.069175 -0.009725 0.023675 -0.032575 0.039325 -0.05815 0.039825H16.31965c-0.64505 0 -1.168 -0.522925 -1.168 -1.167975v-2.458625c0 -0.035475 -0.02875 -0.06425 -0.064225 -0.06425h-0.545075c-0.026425 0.0003 -0.05035 -0.01565 -0.06025 -0.0402 -0.0099 -0.024525 -0.00375 -0.0526 0.0155 -0.07075l2.16465 -2.162725c0.01175 -0.012125 0.0279 -0.018975 0.044775 -0.018975ZM11.87935 4.3097c3.4002 0.02475 6.39915 2.232725 7.4323 5.472275C21.836825 10.111525 23.73155 12.2539 23.75 14.800425c0 2.10175 -1.314425 3.848275 -3.436675 4.5754l-0.078975 0.026475 -0.097325 0.03115v-1.569c1.349025 -0.568425 2.1413 -1.69165 2.1413 -3.064025 -0.0069 -1.936575 -1.540575 -3.517875 -3.468025 -3.5916l-0.065125 -0.0019h-0.584l-0.14015 -0.55675c-0.687875 -2.839375 -3.220225 -4.846 -6.141675 -4.866625 -2.403825 -0.011525 -4.599025 1.3544 -5.652475 3.50945l-0.216675 0.44615 -0.408775 0.042825c-1.846275 0.1975 -3.3622625 1.5479 -3.77107 3.359125 -0.402965 1.785375 0.3578775 3.62845 1.895295 4.6111l0.067325 0.042175v1.65465h-0.009725l-0.146 -0.0662C1.3281325 18.321275 -0.0244414 15.883475 0.2969275 13.36245 0.6182975 10.841425 2.5392 8.8209 5.040775 8.3726c1.351525 -2.515925 3.982675 -4.079025 6.838575 -4.0629Z" stroke-width="0.25"></path>
</svg>